<svg width="156" height="157" viewBox="0 0 156 157" fill="none" xmlns="http://www.w3.org/2000/svg">
<path opacity="0.7" d="M21.1939 52.7987C21.1939 52.7987 12.4953 75.2627 24.7195 97.8827C36.9436 120.503 62.122 132.452 82.2741 142.67C102.426 152.888 123.352 147.912 133.295 131.176C143.239 114.441 129.601 102.494 129.583 78.6292C129.564 54.7644 133.155 48.4463 120.223 28.2849C107.29 8.12346 75.5879 3.65874 51.6139 18.6129C27.6398 33.5671 21.1939 52.7987 21.1939 52.7987Z" fill="white"/>
<path d="M39.6238 139.223C46.987 146.995 65.0643 144.149 72.8924 139.223C98.3079 123.23 142.858 96.6129 144.874 58.0497C145.732 41.6572 131.28 33.0523 125.24 30.5251C110.76 24.4629 94.8478 22.6408 79.1292 21.9388C62.7274 21.2056 45.1212 21.7766 30.3605 29.7794C24.7664 32.8027 19.4873 36.6995 15.8744 42.0067C12.2021 47.398 10.0899 53.8159 9.5314 60.2961C8.6266 70.7481 11.4377 81.2282 15.6903 90.8191C19.9428 100.41 25.615 109.293 30.8192 118.4C34.2137 124.343 33.4275 132.671 39.6238 139.223Z" fill="#06B3C4"/>
<path opacity="0.7" d="M39.6238 139.223C46.987 146.995 65.0643 144.149 72.8924 139.223C98.3079 123.23 142.858 96.6129 144.874 58.0497C145.732 41.6572 131.28 33.0523 125.24 30.5251C110.76 24.4629 94.8478 22.6408 79.1292 21.9388C62.7274 21.2056 45.1212 21.7766 30.3605 29.7794C24.7664 32.8027 19.4873 36.6995 15.8744 42.0067C12.2021 47.398 10.0899 53.8159 9.5314 60.2961C8.6266 70.7481 11.4377 81.2282 15.6903 90.8191C19.9428 100.41 25.615 109.293 30.8192 118.4C34.2137 124.343 33.4275 132.671 39.6238 139.223Z" fill="white"/>
<path d="M103.809 120.587C103.896 93.6427 103.896 63.6907 103.809 36.9273" stroke="#263238" stroke-linecap="round" stroke-linejoin="round"/>
<path d="M108.816 28.5969C108.888 58.3867 108.888 84.5947 108.816 114.375" stroke="#263238" stroke-linecap="round" stroke-linejoin="round"/>
<path d="M103.809 30.5375V19.6175C104.6 19.2938 105.45 19.1417 106.305 19.1714C108.071 19.1714 108.801 19.6175 108.801 19.6175V22.6564" stroke="#263238" stroke-linecap="round" stroke-linejoin="round"/>
<path d="M135.23 19.1683L136.26 19.5864L129.654 25.2024L108.816 28.5969L107.83 28.3036" stroke="#263238" stroke-linecap="round" stroke-linejoin="round"/>
<path d="M107.83 22.8717L127.988 18.4288L135.23 19.1683L129.009 24.7375L107.83 28.3036V22.8717Z" stroke="#263238" stroke-linecap="round" stroke-linejoin="round"/>
<path d="M87.5472 26.9776L86.7017 27.4831L91.8247 33.5952L103.805 36.9273L105.085 36.606" stroke="#263238" stroke-linecap="round" stroke-linejoin="round"/>
<path d="M105.084 31.0274L92.6481 26.2351L87.5469 26.9776L92.8134 33.2613L105.084 36.606V31.0274Z" stroke="#263238" stroke-linecap="round" stroke-linejoin="round"/>
<path d="M64.9771 34.5155V140.892" stroke="#263238" stroke-linecap="round" stroke-linejoin="round"/>
<path d="M35.7642 26.4285C45.5516 28.7467 55.2236 32.1787 64.9767 34.5156" stroke="#263238" stroke-linecap="round" stroke-linejoin="round"/>
<path d="M24.4014 32.4158C37.7518 35.6107 51.4798 39.0427 64.977 42.4747" stroke="#263238" stroke-linecap="round" stroke-linejoin="round"/>
<path d="M15.6685 39.6448C31.8238 43.4107 48.3598 46.8427 64.9769 50.4088" stroke="#263238" stroke-linecap="round" stroke-linejoin="round"/>
<path d="M10.6763 48.0907C28.7036 51.5227 46.7996 54.9432 64.9643 58.3523" stroke="#263238" stroke-linecap="round" stroke-linejoin="round"/>
<path d="M6.86377 57.017L64.9769 66.299" stroke="#263238" stroke-linecap="round" stroke-linejoin="round"/>
<path d="M6.86377 66.6671L64.9769 74.2456" stroke="#263238" stroke-linecap="round" stroke-linejoin="round"/>
<path d="M8.21777 76.4515C27.1437 78.0427 45.8637 80.5387 64.9768 82.1923" stroke="#263238" stroke-linecap="round" stroke-linejoin="round"/>
<path d="M10.9009 86.2514C25.5836 87.4027 40.2476 88.0267 55.2236 89.5867C58.3436 89.5867 61.7756 89.5867 64.9767 90.1358" stroke="#263238" stroke-linecap="round" stroke-linejoin="round"/>
<path d="M14.5356 95.9359C31.5116 96.7627 48.0476 97.6987 64.9767 98.0824" stroke="#263238" stroke-linecap="round" stroke-linejoin="round"/>
<path d="M19.0786 105.418C34.3198 105.499 49.6078 105.811 64.9769 106.029" stroke="#263238" stroke-linecap="round" stroke-linejoin="round"/>
<path d="M24.3765 114.625C37.7519 114.547 51.4799 114.235 64.977 113.976" stroke="#263238" stroke-linecap="round" stroke-linejoin="round"/>
<path d="M29.0156 123.548C40.8716 122.971 53.0396 122.347 64.9861 121.919" stroke="#263238" stroke-linecap="round" stroke-linejoin="round"/>
<path d="M61.3047 38.4842V131.03" stroke="#263238" stroke-linecap="round" stroke-linejoin="round"/>
<path d="M43.8389 30.472V87.9705" stroke="#263238" stroke-linecap="round" stroke-linejoin="round"/>
<path d="M23.9644 38.2315V101.773" stroke="#263238" stroke-linecap="round" stroke-linejoin="round"/>
<path d="M143.713 40.5278L113.19 44.0534V115.604" stroke="#263238" stroke-linecap="round" stroke-linejoin="round"/>
<path d="M145.881 49.7162L117.246 52.0905V109.258" stroke="#263238" stroke-linecap="round" stroke-linejoin="round"/>
<path d="M145.882 63.6595L118.073 65.6438" stroke="#263238" stroke-linecap="round" stroke-linejoin="round"/>
<path d="M141.766 75.7807L118.894 77.2689" stroke="#263238" stroke-linecap="round" stroke-linejoin="round"/>
<path d="M128.453 53.3042V97.1901" stroke="#263238" stroke-linecap="round" stroke-linejoin="round"/>
<path d="M36.1108 134.034C36.9977 135.94 38.1837 137.692 39.624 139.223C46.9872 146.995 65.3796 144.149 73.2076 139.223C75.7816 137.603 78.2371 135.872 81.1387 134.034" stroke="#263238" stroke-linecap="round" stroke-linejoin="round"/>
<path d="M109.481 81.2126L106.616 92.3947L111.608 121.464H111.571L111.449 121.489C109.325 121.954 86.4363 126.933 85.3163 126.839C84.1431 126.743 65.7539 123.913 65.7539 123.913L49.4768 125.816L36.4259 120.06L24.3671 122.188L20.9351 79.6027C20.9351 79.6027 23.4841 58.7798 22.311 53.1731C22.311 53.1731 42.3944 56.056 44.2508 56.2557C46.1072 56.4554 67.7039 49.6507 67.7039 49.6507L85.9278 55.6879L101.194 53.7566L123.783 64.3334C123.783 64.3334 109.116 78.935 109.481 81.2126Z" fill="white" stroke="#263238" stroke-linecap="round" stroke-linejoin="round"/>
<path d="M24.648 55.0046L44.251 57.7627L67.392 52.0656L85.9092 57.2479L100.439 55.6879L120.569 64.3147C120.569 64.3147 109.113 78.5107 108.673 79.4186C108.233 80.3265 104.561 92.3947 104.561 92.3947L109.409 120.069L85.9186 125.239L66.1596 122.078L50.5003 123.457L37.1873 117.745L26.13 120.069L22.542 80.2454C22.542 80.2454 25.8367 64.0464 24.648 55.0046Z" fill="#06B3C4" stroke="#263238" stroke-linecap="round" stroke-linejoin="round"/>
<path d="M92.9229 69.8714L96.0959 69.1039L111.509 75.6902C112.264 74.7261 113.116 73.6497 113.989 72.5515L97.2815 65.4909L93.7622 66.4768L95.968 56.159L93.0508 56.471L90.3738 67.4347L81.7252 69.8558L65.0831 71.3066L58.4344 74.6107L58.7464 64.8731L66.8771 61.0418L76.3494 62.8701L77.9625 55.0389L75.0858 54.2339L74.1748 59.9217L66.8771 58.3617L58.8462 61.984L59.1052 54.1154L55.2239 55.0576V76.1863L45.3616 81.0847V57.4881L44.2384 57.7627L41.7798 57.4163L42.201 65.4909H35.5305L24.8507 57.1387C24.9194 58.343 24.9287 59.6347 24.8975 60.9482L34.3854 68.8886H42.3851L42.6971 74.9102L42.4038 77.4062L22.7354 82.4107L22.8383 83.5495L42.2572 78.6542L41.8079 82.5386L23.1628 87.1406L23.506 90.9657L33.3839 88.3543L34.3012 100.123L25.2001 109.751L25.5558 113.689L28.7632 110.294L29.4746 119.358L30.3918 119.164L29.7678 109.233L36.4103 102.207L39.6239 101.387L52.3442 97.2837L52.0634 99.1307L44.9997 121.099L47.7172 122.266L51.43 110.282L56.9087 109.268L67.9161 114.029L73.0235 114.356L72.1562 123.039L73.5165 123.255L74.1093 114.422L86.9231 115.242L96.1802 113.91L97.3595 122.721L99.7432 122.197L98.5919 113.555L108.017 112.197L107.546 109.502L87.4847 112.163L79.3727 111.452L80.5271 100.532L87.5752 96.6815H89.7592L105.559 98.2821L105.004 95.0841L90.2054 93.6832H86.789L88.5237 83.2531L92.9229 69.8714ZM40.5069 97.6706L35.1405 99.2618L34.4291 88.0704L42.6971 85.8864L55.0274 79.5215L52.9962 93.0187L40.5069 97.6706ZM57.9102 106.198L52.3473 107.302L54.6561 99.8827L58.1474 77.921L65.1767 74.2924L67.9067 85.3622L66.8865 94.5787L63.8226 108.569L57.9102 106.198ZM83.3975 96.0575L78.5553 98.3507L76.7738 111.224L68.6618 110.513L65.8694 109.392L68.9894 95.4991L70.1999 85.8801H75.7878L85.1135 84.3201L83.3975 96.0575ZM85.5659 82.0768L76.2059 84.0019H68.6805L66.4154 74.0959L81.1012 72.7387L89.3941 70.7231L85.5659 82.0768Z" fill="white" stroke="#263238" stroke-linecap="round" stroke-linejoin="round"/>
<path opacity="0.5" d="M89.394 90.9907L90.2396 84.3107L101.035 86.6819L100.155 92.3853L89.394 90.9907Z" fill="white"/>
<path opacity="0.5" d="M96.0835 84.0019L98.2831 77.868L106.414 80.9349L104.548 87.2779L96.0835 84.0019Z" fill="white"/>
<path opacity="0.5" d="M94.3174 70.7294H95.216L98.6137 72.2675L95.216 82.5729L92.0305 81.6182L91.0103 81.3935L94.3174 70.7294Z" fill="white"/>
<path opacity="0.5" d="M101.035 73.4625L108.966 76.6511L107.646 78.935L100.155 76.6511L101.035 73.4625Z" fill="white"/>
<path opacity="0.5" d="M96.0835 64.3209L97.6217 57.2479L100.155 56.8454L103.899 58.3492L101.247 65.6407L97.6716 64.3209H96.0835Z" fill="white"/>
<path opacity="0.5" d="M102.907 66.4051L104.56 62.3366L115.686 67.4035L113.484 70.7294L102.907 66.4051Z" fill="white"/>
<path opacity="0.5" d="M79.1979 56.8454L85.1072 58.5551L83.3132 67.9557H82.4552H77.2417L79.1979 56.8454Z" fill="white"/>
<path opacity="0.5" d="M86.605 58.8141L91.0105 58.0653L89.3943 66.4051L85.1074 67.5158L86.605 58.8141Z" fill="white"/>
<path opacity="0.5" d="M76.0313 64.3209L75.4978 68.3956L65.8913 68.8356L60.1162 71.812V66.4051L67.1081 62.7921L76.0313 64.3209Z" fill="white"/>
<path opacity="0.5" d="M60.534 55.0046L67.4729 53.1794L66.9363 57.2479L60.1284 59.9092L60.534 55.0046Z" fill="white"/>
<path opacity="0.5" d="M68.356 57.2479L73.3854 58.3492L74.1872 54.6271L68.98 53.7441L68.356 57.2479Z" fill="white"/>
<path opacity="0.5" d="M46.6191 58.3492V64.3209L53.8887 62.3366V56.8454L46.6191 58.3492Z" fill="white"/>
<path opacity="0.5" d="M47.1182 66.533V78.3359L51.1336 76.6511L50.5002 69.3878L53.8886 68.3956V64.3209L47.1182 66.533Z" fill="white"/>
<path opacity="0.5" d="M34.9409 70.2676L35.4932 77.8679L40.7784 76.6511L41.6271 74.2799V70.2676H34.9409Z" fill="white"/>
<path opacity="0.5" d="M26.3512 64.3147L33.3244 69.7123V73.4563L25.4683 74.0615C25.4683 74.0615 26.4604 67.5158 26.3512 64.3147Z" fill="white"/>
<path opacity="0.5" d="M25.4682 75.556L32.6536 74.8946V78.52L24.2046 80.8257L25.4682 75.556Z" fill="white"/>
<path opacity="0.5" d="M34.9409 58.0653V63.2195L40.7784 63.6595L40.5382 58.3492L34.9409 58.0653Z" fill="white"/>
<path opacity="0.5" d="M59.3702 78.935L64.384 76.5981L65.891 85.1438L58.3687 86.4667L59.3702 78.935Z" fill="white"/>
<path opacity="0.5" d="M60.534 87.7677L60.1284 93.6208L65.3451 93.0717V86.4667L60.534 87.7677Z" fill="white"/>
<path opacity="0.5" d="M75.4975 74.8946L74.8174 82.5729H77.6535L83.9621 81.5308L87.5969 72.2675L80.6705 74.2799L75.4975 74.8946Z" fill="white"/>
<path opacity="0.5" d="M68.356 75.3345V77.4187L73.6069 77.2689V74.8946L68.356 75.3345Z" fill="white"/>
<path opacity="0.5" d="M76.0311 88.6725L75.4976 94.8345L82.4208 93.6208L83.3132 86.4667L76.0311 88.6725Z" fill="white"/>
<path opacity="0.5" d="M69.9722 96.6909L74.8176 97.0372L73.607 109.402L68.9582 109.258L67.2173 108.631L69.9722 96.6909Z" fill="white"/>
<path opacity="0.5" d="M71.5541 87.7677L74.8176 88.2388L74.1873 92.3853H70.98L71.5541 87.7677Z" fill="white"/>
<path opacity="0.5" d="M97.6216 99.2618L103.899 99.8702L105.331 107.433L97.6216 107.592V99.2618Z" fill="white"/>
<path opacity="0.5" d="M83.3132 101.773L89.3941 101.284L90.2396 110.144H82.3086L83.3132 101.773Z" fill="white"/>
<path opacity="0.5" d="M100.155 115.23L101.035 119.28L105.331 118.581L104.56 114.369L100.155 115.23Z" fill="white"/>
<path opacity="0.5" d="M86.2742 116.824L94.8105 115.785L95.2161 120.5L85.9185 122.805L80.6582 122.188L82.4928 116.387L86.2742 116.824Z" fill="white"/>
<path opacity="0.5" d="M42.1012 103.046L49.0432 101.773L48.5752 106.566L46.619 111.239L41.627 112.569L42.1012 103.046Z" fill="white"/>
<path opacity="0.5" d="M36.0454 89.387V93.1809L41.39 92.3853L44.251 91.284L44.1044 86.4667L42.1575 87.7677L36.0454 89.387Z" fill="white"/>
<path opacity="0.5" d="M24.916 92.3853L31.9672 90.6506L32.6536 97.9358L25.9082 99.2618L24.916 92.3853Z" fill="white"/>
<path opacity="0.5" d="M25.4092 105.336L29.434 101.773L30.4792 102.741L26.3171 106.737L25.4092 105.336Z" fill="white"/>
<path opacity="0.5" d="M26.4604 115.23L28.4292 114.765L28.7849 118.737L26.8349 119.021L26.4604 115.23Z" fill="white"/>
<path opacity="0.5" d="M31.6368 117.639L31.2593 110.697L36.0454 110.144V117.005L31.6368 117.639Z" fill="white"/>
<path opacity="0.5" d="M61.7883 101.773C63.2753 101.773 64.4808 100.568 64.4808 99.0808C64.4808 97.5938 63.2753 96.3883 61.7883 96.3883C60.3012 96.3883 59.0957 97.5938 59.0957 99.0808C59.0957 100.568 60.3012 101.773 61.7883 101.773Z" fill="white"/>
<path opacity="0.1" d="M109.481 81.2126L106.616 92.3947L111.608 121.464H111.571L111.449 121.489L85.3193 126.839L92.1116 81.0628L101.185 53.7441L123.773 64.3209C123.773 64.3209 109.116 78.935 109.481 81.2126Z" fill="black" fill-opacity="0.7"/>
<path opacity="0.1" d="M85.9185 55.6754L79.0045 80.183L72.9829 90.8284L65.757 123.913L49.48 125.816L61.467 97.9389L64.3187 77.0973L67.9317 49.7162L85.9185 55.6754Z" fill="black" fill-opacity="0.7"/>
<path opacity="0.1" d="M44.1041 56.2463L43.6081 79.0223L36.7753 120.225L36.4289 120.072L24.367 122.188L21.2158 82.9473L40.0949 75.6465L43.2149 56.1309L44.1041 56.2463Z" fill="black" fill-opacity="0.7"/>
<path d="M91.3101 68.5828C91.2591 68.5299 91.1949 68.4916 91.1241 68.4718C91.0533 68.4521 90.9786 68.4516 90.9076 68.4705L81.4321 70.9135L65.3111 72.1303C65.2556 72.1337 65.2014 72.1486 65.152 72.1739L43.9921 83.0347L44.3041 76.1707V66.8949C44.3041 66.84 44.2933 66.7856 44.2723 66.7349C44.2513 66.6842 44.2205 66.6381 44.1817 66.5993C44.1429 66.5605 44.0968 66.5297 44.046 66.5086C43.9953 66.4876 43.941 66.4768 43.8861 66.4768H39.6241C39.5133 66.4768 39.4069 66.5209 39.3285 66.5993C39.2501 66.6777 39.2061 66.784 39.2061 66.8949C39.2061 67.0058 39.2501 67.1121 39.3285 67.1905C39.4069 67.2689 39.5133 67.313 39.6241 67.313H43.4493V76.1395L43.1123 83.7117C43.1081 83.7849 43.1235 83.858 43.157 83.9232C43.1904 83.9885 43.2407 84.0436 43.3026 84.083C43.364 84.1222 43.4345 84.1448 43.5072 84.1486C43.5799 84.1525 43.6524 84.1374 43.7176 84.1048L65.4546 72.9571L81.5289 71.7434C81.5527 71.7466 81.5768 71.7466 81.6006 71.7434L90.4053 69.472L86.6144 82.888C86.6134 82.9026 86.6134 82.9172 86.6144 82.9317L85.9905 86.6383H85.6348C85.6156 86.6383 85.5966 86.6426 85.5794 86.6509C85.5621 86.6592 85.5469 86.6713 85.5349 86.6863C85.5229 86.7013 85.5144 86.7187 85.5101 86.7374C85.5058 86.7561 85.5058 86.7755 85.51 86.7943L86.0373 88.2575C86.0436 88.2846 86.0574 88.3092 86.0772 88.3287C86.097 88.3482 86.1219 88.3616 86.149 88.3675C86.1761 88.3734 86.2043 88.3715 86.2304 88.3619C86.2565 88.3524 86.2793 88.3357 86.2962 88.3137L87.2821 86.8879C87.3445 86.8005 87.2821 86.6944 87.148 86.6882H86.836L87.4257 83.1127L91.4161 68.9947C91.4376 68.9229 91.4391 68.8466 91.4204 68.774C91.4017 68.7014 91.3635 68.6353 91.3101 68.5828Z" fill="#06B3C4"/>
<path opacity="0.6" d="M91.3101 68.5828C91.2591 68.5299 91.1949 68.4916 91.1241 68.4718C91.0533 68.4521 90.9786 68.4516 90.9076 68.4705L81.4321 70.9135L65.3111 72.1303C65.2556 72.1337 65.2014 72.1486 65.152 72.1739L43.9921 83.0347L44.3041 76.1707V66.8949C44.3041 66.84 44.2933 66.7856 44.2723 66.7349C44.2513 66.6842 44.2205 66.6381 44.1817 66.5993C44.1429 66.5605 44.0968 66.5297 44.046 66.5086C43.9953 66.4876 43.941 66.4768 43.8861 66.4768H39.6241C39.5133 66.4768 39.4069 66.5209 39.3285 66.5993C39.2501 66.6777 39.2061 66.784 39.2061 66.8949C39.2061 67.0058 39.2501 67.1121 39.3285 67.1905C39.4069 67.2689 39.5133 67.313 39.6241 67.313H43.4493V76.1395L43.1123 83.7117C43.1081 83.7849 43.1235 83.858 43.157 83.9232C43.1904 83.9885 43.2407 84.0436 43.3026 84.083C43.364 84.1222 43.4345 84.1448 43.5072 84.1486C43.5799 84.1525 43.6524 84.1374 43.7176 84.1048L65.4546 72.9571L81.5289 71.7434C81.5527 71.7466 81.5768 71.7466 81.6006 71.7434L90.4053 69.472L86.6144 82.888C86.6134 82.9026 86.6134 82.9172 86.6144 82.9317L85.9905 86.6383H85.6348C85.6156 86.6383 85.5966 86.6426 85.5794 86.6509C85.5621 86.6592 85.5469 86.6713 85.5349 86.6863C85.5229 86.7013 85.5144 86.7187 85.5101 86.7374C85.5058 86.7561 85.5058 86.7755 85.51 86.7943L86.0373 88.2575C86.0436 88.2846 86.0574 88.3092 86.0772 88.3287C86.097 88.3482 86.1219 88.3616 86.149 88.3675C86.1761 88.3734 86.2043 88.3715 86.2304 88.3619C86.2565 88.3524 86.2793 88.3357 86.2962 88.3137L87.2821 86.8879C87.3445 86.8005 87.2821 86.6944 87.148 86.6882H86.836L87.4257 83.1127L91.4161 68.9947C91.4376 68.9229 91.4391 68.8466 91.4204 68.774C91.4017 68.7014 91.3635 68.6353 91.3101 68.5828Z" fill="black" fill-opacity="0.7"/>
<path d="M41.4962 51.8783C41.0729 51.4547 40.5702 51.1186 40.017 50.8893C39.4637 50.66 38.8706 50.5419 38.2717 50.5419C37.6728 50.5419 37.0798 50.66 36.5265 50.8893C35.9732 51.1186 35.4705 51.4547 35.0472 51.8783C34.1931 52.7341 33.7134 53.8938 33.7134 55.1029C33.7134 56.3119 34.1931 57.4716 35.0472 58.3274L38.2733 61.5503L41.4962 58.3274C41.9199 57.9041 42.256 57.4014 42.4853 56.8481C42.7146 56.2948 42.8326 55.7018 42.8326 55.1029C42.8326 54.504 42.7146 53.9109 42.4853 53.3576C42.256 52.8043 41.9199 52.3017 41.4962 51.8783ZM39.6242 56.4304C39.362 56.6911 39.0284 56.8683 38.6656 56.9397C38.3028 57.011 37.9269 56.9733 37.5855 56.8313C37.2441 56.6893 36.9523 56.4494 36.7471 56.1418C36.5419 55.8341 36.4324 55.4727 36.4324 55.1029C36.4324 54.7331 36.5419 54.3716 36.7471 54.064C36.9523 53.7564 37.2441 53.5164 37.5855 53.3744C37.9269 53.2324 38.3028 53.1947 38.6656 53.266C39.0284 53.3374 39.362 53.5146 39.6242 53.7753C39.7992 53.9493 39.9381 54.1561 40.0329 54.384C40.1276 54.6118 40.1764 54.8561 40.1764 55.1029C40.1764 55.3496 40.1276 55.5939 40.0329 55.8218C39.9381 56.0496 39.7992 56.2565 39.6242 56.4304Z" fill="#263238"/>
<path d="M35.0503 57.1012C35.4092 57.8327 35.921 58.4785 36.551 58.9951" stroke="white" stroke-linecap="round" stroke-linejoin="round"/>
<path d="M36.1577 51.8347C34.5977 52.7707 34.1921 54.5771 34.7038 56.2401" stroke="white" stroke-linecap="round" stroke-linejoin="round"/>
<path d="M38.2858 51.2294C37.8915 51.2313 37.4996 51.2901 37.1221 51.4041" stroke="white" stroke-linecap="round" stroke-linejoin="round"/>
<path d="M82.6302 80.8507C82.2068 80.427 81.7042 80.0909 81.1509 79.8616C80.5976 79.6323 80.0046 79.5143 79.4057 79.5143C78.8067 79.5143 78.2137 79.6323 77.6604 79.8616C77.1071 80.0909 76.6045 80.427 76.1811 80.8507C75.7575 81.274 75.4214 81.7767 75.1921 82.3299C74.9628 82.8832 74.8447 83.4763 74.8447 84.0752C74.8447 84.6741 74.9628 85.2672 75.1921 85.8204C75.4214 86.3737 75.7575 86.8764 76.1811 87.2997L79.4041 90.5227L82.6302 87.2997C83.0538 86.8764 83.3899 86.3737 83.6192 85.8204C83.8485 85.2672 83.9666 84.6741 83.9666 84.0752C83.9666 83.4763 83.8485 82.8832 83.6192 82.3299C83.3899 81.7767 83.0538 81.274 82.6302 80.8507ZM80.7332 85.4027C80.471 85.6635 80.1374 85.8407 79.7746 85.912C79.4117 85.9834 79.0359 85.9456 78.6945 85.8036C78.353 85.6616 78.0613 85.4217 77.8561 85.1141C77.6509 84.8065 77.5414 84.445 77.5414 84.0752C77.5414 83.7054 77.6509 83.3439 77.8561 83.0363C78.0613 82.7287 78.353 82.4887 78.6945 82.3467C79.0359 82.2047 79.4117 82.167 79.7746 82.2384C80.1374 82.3097 80.471 82.4869 80.7332 82.7476C80.9082 82.9216 81.0471 83.1285 81.1418 83.3563C81.2366 83.5841 81.2854 83.8284 81.2854 84.0752C81.2854 84.3219 81.2366 84.5663 81.1418 84.7941C81.0471 85.0219 80.9082 85.2288 80.7332 85.4027Z" fill="#263238"/>
<path d="M76.1719 86.0735C76.5305 86.806 77.0423 87.453 77.6726 87.9705" stroke="white" stroke-linecap="round" stroke-linejoin="round"/>
<path d="M77.2793 80.8039C75.7193 81.7399 75.3137 83.5432 75.8254 85.2093" stroke="white" stroke-linecap="round" stroke-linejoin="round"/>
<path d="M79.4043 80.2017C79.0111 80.2049 78.6203 80.2637 78.2437 80.3764" stroke="white" stroke-linecap="round" stroke-linejoin="round"/>
<path d="M109.481 81.2095C109.113 81.3592 106.03 81.7243 106.03 81.7243C106.102 80.9911 107.646 79.6682 107.646 78.935C107.658 78.8486 107.649 78.7606 107.618 78.679C107.588 78.5973 107.537 78.5244 107.472 78.4669C107.406 78.4094 107.328 78.3691 107.243 78.3495C107.158 78.3299 107.069 78.3317 106.985 78.3547C106.838 79.3094 104.414 81.0691 103.899 81.2906C103.385 81.5121 101.99 86.2108 101.235 86.9471C95.3069 92.8564 89.6909 96.2728 87.5974 100.363C86.2559 102.893 84.2825 105.033 81.869 106.575C81.869 106.575 80.6585 122.156 85.2823 115.233C89.9062 108.31 91.5629 108.715 93.8748 105.633C96.1867 102.55 100.704 95.5147 104.23 89.5867C106.03 88.0579 107.425 88.7661 108.526 87.6647C108.76 87.4307 108.601 86.4885 108.966 85.8707C109.331 85.253 109.921 84.1392 109.849 83.4777C109.777 82.8163 110.364 82.4512 110.436 82.0831C110.508 81.7149 109.849 81.0628 109.481 81.2095Z" fill="#BFBFBF" stroke="#263238" stroke-miterlimit="10"/>
<path d="M38.3761 102.872C37.1781 98.4319 32.3857 93.9297 27.8118 86.9222C27.2284 86.0455 26.8321 81.1627 26.3797 80.8507C25.9273 80.5387 23.9149 78.3047 23.968 77.3407C23.89 77.3006 23.8033 77.2805 23.7156 77.2824C23.628 77.2842 23.5422 77.3079 23.466 77.3513C23.3898 77.3946 23.3256 77.4563 23.2792 77.5307C23.2329 77.6051 23.2058 77.69 23.2005 77.7775C23.0476 78.4951 24.2831 80.1081 24.2051 80.8413C24.2051 80.8413 21.2629 79.846 20.9322 79.6245C20.6015 79.403 19.8215 79.9147 19.8184 80.2891C19.8153 80.6635 20.3113 81.1439 20.1023 81.7773C19.8933 82.4107 20.2396 83.6212 20.4705 84.3014C20.7013 84.9815 20.3519 85.8614 20.5297 86.1453C21.3815 87.4526 22.8916 87.047 24.3361 88.9159C26.5638 95.4179 29.5247 103.246 31.1502 106.744C32.7757 110.241 34.4761 110.176 37.5712 117.916C40.6662 125.657 42.7036 110.151 42.7036 110.151C40.6562 108.139 39.1653 105.631 38.3761 102.872Z" fill="#BFBFBF" stroke="#263238" stroke-miterlimit="10"/>
<path d="M40.3229 104.984C40.3229 104.984 41.1216 103.087 39.6303 102.488C38.1389 101.889 36.2638 102.971 36.2638 102.971C36.2638 102.971 33.5088 103.661 33.3996 106.575C33.3996 106.575 32.7756 116.353 35.072 116.391C37.3683 116.428 40.3229 104.984 40.3229 104.984Z" fill="#999999" stroke="#263238" stroke-linecap="round" stroke-linejoin="round"/>
<path d="M83.3043 105.324C83.3043 105.324 83.1827 103.789 85.0547 103.992C86.9267 104.195 88.4679 106.862 88.3587 110.597C88.3587 110.597 89.2167 115.361 86.9142 115.23C84.6116 115.099 83.3043 105.324 83.3043 105.324Z" fill="#999999" stroke="#263238" stroke-linecap="round" stroke-linejoin="round"/>
<path d="M47.1715 113.764C47.1715 113.764 40.7911 106.329 39.6242 103.758C39.6242 103.758 35.2312 103.614 34.6322 107.467C34.2919 110.044 34.2919 112.654 34.6322 115.23C34.6322 115.23 38.9627 127.049 40.763 131.523L47.1715 113.764Z" fill="#757575"/>
<g opacity="0.3">
<path d="M44.9277 111.071C43.8912 111.209 42.891 111.546 41.9824 112.063C41.7422 112.194 41.4988 112.341 41.2554 112.506C41.0287 112.658 40.8195 112.835 40.6315 113.033C39.6955 113.969 39.0715 115.383 38.6815 117.046C38.4791 117.905 38.329 118.776 38.2322 119.654C38.0617 121.19 37.9909 122.736 38.02 124.281C37.4896 122.874 36.9655 121.473 36.4912 120.191C36.5754 119.233 36.715 118.281 36.9093 117.339C37.0624 116.583 37.271 115.84 37.5333 115.115C37.9546 113.797 38.694 112.603 39.6861 111.639C39.8883 111.451 40.1054 111.28 40.3351 111.127C40.5784 110.965 40.8218 110.815 41.0589 110.678C41.9005 110.193 42.8072 109.83 43.7515 109.601L44.9277 111.071Z" fill="#06B3C4"/>
</g>
<g opacity="0.3">
<path d="M42.4757 107.995C41.6142 108.242 40.7708 108.548 39.9516 108.912C39.6677 109.037 39.3775 109.174 39.0749 109.321C38.857 109.426 38.6483 109.549 38.4509 109.689C37.4119 110.438 36.6912 111.642 36.1889 113.018C35.9369 113.737 35.7377 114.473 35.593 115.221C35.4713 115.845 35.3808 116.469 35.309 117.074L34.6351 115.239C34.6351 115.239 34.529 114.528 34.451 113.417C34.451 113.305 34.451 113.189 34.4292 113.071C34.614 112.479 34.8391 111.9 35.1031 111.339C35.6535 110.094 36.5245 109.018 37.6272 108.219C37.8502 108.068 38.0838 107.932 38.3261 107.814C38.5944 107.68 38.8596 107.558 39.1154 107.442C39.8587 107.106 40.6202 106.811 41.3962 106.559C41.7425 107.024 42.1013 107.502 42.4757 107.995Z" fill="#06B3C4"/>
</g>
<g opacity="0.3">
<path d="M40.2105 104.806C39.4982 104.992 38.811 105.263 38.1638 105.614C37.6659 105.878 37.1901 106.182 36.7411 106.522C35.9273 107.134 35.1796 107.829 34.5103 108.597C34.5446 108.222 34.5914 107.845 34.6475 107.471C34.7683 106.526 35.2218 105.655 35.9267 105.015L35.9673 104.99C36.3011 104.75 36.6468 104.527 37.0031 104.322C37.1342 104.244 37.2683 104.173 37.4025 104.101L37.4275 104.151C37.6721 104.062 37.9222 103.989 38.1763 103.932C38.6499 103.823 39.1346 103.767 39.6208 103.767C39.7955 104.125 39.9925 104.472 40.2105 104.806Z" fill="#06B3C4"/>
</g>
<g opacity="0.3">
<path d="M44.0417 114.671L42.7937 115.788C42.0123 114.914 41.283 113.994 40.6097 113.033C40.2821 112.575 39.9669 112.097 39.6581 111.633C39.2431 110.99 38.8406 110.338 38.4569 109.683C38.174 109.196 37.8994 108.709 37.6332 108.222C37.3212 107.651 37.0092 107.081 36.7346 106.522C36.4601 105.964 36.2105 105.48 35.9702 104.981C36.2849 104.713 36.6344 104.49 37.0092 104.316C37.1402 104.238 37.2744 104.166 37.4085 104.095L37.4335 104.145C37.6644 104.622 37.9046 105.115 38.1605 105.617C38.4725 106.216 38.7845 106.831 39.1245 107.449C39.3908 107.935 39.6653 108.422 39.9482 108.909C40.2977 109.502 40.6596 110.09 41.034 110.675C41.3397 111.149 41.6517 111.613 41.97 112.066C42.6101 112.974 43.3018 113.843 44.0417 114.671Z" fill="#06B3C4"/>
</g>
<g opacity="0.3">
<path d="M42.4319 124.996L40.8251 125.467C40.3478 123.841 39.3899 121.804 38.2168 119.654C37.8018 118.89 37.3557 118.113 36.8939 117.336C36.4758 116.625 36.0421 115.916 35.6053 115.217C35.2278 114.593 34.8472 114.001 34.4634 113.414C34.4634 113.302 34.4634 113.186 34.4416 113.068C34.3948 112.266 34.3698 111.302 34.4041 110.26L35.1155 111.336C35.4712 111.879 35.8362 112.444 36.2013 113.015C36.6381 113.701 37.078 114.403 37.5117 115.111C37.9048 115.754 38.2917 116.403 38.6661 117.049C40.3384 119.929 41.7829 122.793 42.4319 124.996Z" fill="#06B3C4"/>
</g>
<path opacity="0.2" d="M42.3007 127.295L40.7781 131.523C38.9779 127.049 34.6473 115.233 34.6473 115.233C34.307 112.657 34.307 110.047 34.6473 107.471C35.0124 105.074 36.8313 104.223 38.1854 103.923C38.2654 103.936 38.3445 103.954 38.4225 103.976C38.4225 103.976 34.9468 106.201 35.3275 114.765L38.7127 124.125C38.7127 124.125 39.0683 120.865 40.4224 121.336C41.0059 121.545 41.8358 124.25 42.3007 127.295Z" fill="black" fill-opacity="0.7"/>
<path d="M47.1715 113.764C47.1715 113.764 40.7911 106.329 39.6242 103.758C39.6242 103.758 35.2312 103.614 34.6322 107.467C34.2919 110.044 34.2919 112.654 34.6322 115.23C34.6322 115.23 38.9627 127.049 40.763 131.523L47.1715 113.764Z" stroke="#263238" stroke-linecap="round" stroke-linejoin="round"/>
<path d="M60.9086 107.124C60.8774 107.252 60.7495 107.358 60.5342 107.436C59.9236 107.595 59.2894 107.641 58.6622 107.573C54.6842 107.355 46.6128 104.993 44.6877 100.295C42.6316 95.2807 47.9076 88.7349 53.5548 88.5945C56.7996 88.5165 59.5358 92.3385 60.1941 96.8438C60.528 99.0153 62.3719 100.819 60.9086 107.124Z" fill="#BFBFBF" stroke="#263238" stroke-miterlimit="10"/>
<path d="M58.1507 99.8827C57.9353 100.296 57.8577 100.767 57.9292 101.227" stroke="#263238" stroke-linecap="round" stroke-linejoin="round"/>
<path d="M58.1821 102.485C58.1821 102.485 58.7593 103.265 59.1743 102.903" stroke="#263238" stroke-linecap="round" stroke-linejoin="round"/>
<path d="M60.5282 107.436C59.9177 107.595 59.2834 107.641 58.6562 107.573C58.7374 106.984 58.8934 106.301 58.9433 105.957C59.1055 104.875 58.5627 104.538 58.7935 104.46C59.0244 104.382 59.0026 105.346 59.4612 105.836C59.8878 106.318 60.2467 106.857 60.5282 107.436Z" fill="#263238"/>
<path d="M58.9682 106.613C58.9682 106.613 58.26 109.327 58.3442 110.703C58.4393 111.758 58.6304 112.802 58.9152 113.823L50.3477 114.319C50.3477 114.319 51.63 108.151 50.9436 105.992C50.2572 103.833 56.4223 104.619 56.4223 104.619" fill="#BFBFBF"/>
<path d="M58.9682 106.613C58.9682 106.613 58.26 109.327 58.3442 110.703C58.4393 111.758 58.6304 112.802 58.9152 113.823L50.3477 114.319C50.3477 114.319 51.63 108.151 50.9436 105.992C50.2572 103.833 56.4223 104.619 56.4223 104.619" stroke="#263238" stroke-miterlimit="10"/>
<path d="M57.9882 93.8798C58.347 92.7129 58.9866 92.8315 58.9866 92.8315C58.9866 92.8315 58.5717 87.2311 56.1786 86.6351C54.5625 86.2295 54.1194 88.6631 52.4346 86.9097C51.4986 85.9269 49.7889 85.6617 48.6438 86.4916C47.9668 86.9908 47.9886 87.6866 47.5362 88.2919C47.0838 88.8971 46.1509 88.8722 45.4645 89.0126C44.4037 89.2279 43.3273 90.0172 43.1058 91.1342C42.9249 92.0452 44.0418 92.7659 43.8234 93.5147C43.5645 94.4102 42.7314 94.9531 42.2166 95.6987C41.5926 96.5911 41.5365 97.7517 41.7767 98.7875C42.1355 100.329 42.9311 100.931 44.1698 101.717C44.7938 102.11 45.1588 102.825 45.5425 103.427C46.828 105.449 48.388 106.928 50.8465 107.346C55.7793 108.188 57.9882 103.636 57.9882 103.636C57.9882 103.636 57.4329 99.1245 57.8353 98.6097C58.2378 98.0949 59.0833 99.8577 59.0833 99.8577C60.1098 97.1121 57.9882 93.8798 57.9882 93.8798Z" fill="#263238"/>
<path d="M59.1333 100.553C58.9836 100.004 59.0896 97.7455 58.4064 97.9514C57.8073 98.1355 58.0944 100.466 58.7184 102.023C59.3424 103.58 60.1068 103.583 60.1286 103.131C60.1504 102.678 59.6325 102.394 59.5046 101.742" fill="#BFBFBF"/>
<path d="M59.1333 100.553C58.9836 100.004 59.0896 97.7455 58.4064 97.9514C57.8073 98.1355 58.0944 100.466 58.7184 102.023C59.3424 103.58 60.1068 103.583 60.1286 103.131C60.1504 102.678 59.6325 102.394 59.5046 101.742" stroke="#263238" stroke-miterlimit="10"/>
<path opacity="0.3" d="M57.6361 91.078C57.6361 91.078 57.9075 88.504 56.1697 88.582C54.4318 88.66 54.5223 91.078 54.5223 91.078C54.5223 91.078 53.0622 90.582 52.563 91.4244C52.0638 92.2668 52.5786 93.9703 52.5786 93.9703C52.5786 93.9703 51.0186 94.4663 51.4023 95.5115C51.7861 96.5567 50.7783 96.7127 50.7783 96.7127" stroke="white" stroke-linecap="round" stroke-linejoin="round"/>
<path opacity="0.3" d="M57.2398 93.1809C57.2398 93.1809 56.9652 95.4585 55.3397 95.5115C55.3397 95.5115 53.6674 100.653 47.9858 100.544" stroke="white" stroke-linecap="round" stroke-linejoin="round"/>
<path opacity="0.3" d="M52.8871 88.2388C52.8871 88.2388 51.5767 87.0127 50.0011 87.7646C48.4255 88.5165 49.4739 90.6506 49.4739 90.6506C49.4739 90.6506 47.9451 90.557 47.4427 91.7114C46.9404 92.8658 48.4287 93.6208 48.4287 93.6208C48.4287 93.6208 46.7314 94.5225 47.4427 95.237C48.1541 95.9515 47.4427 97.3867 47.4427 97.3867" stroke="white" stroke-linecap="round" stroke-linejoin="round"/>
<path opacity="0.3" d="M46.3351 90.6506C46.3351 90.6506 43.9577 91.3994 44.4631 93.1809C44.9686 94.9624 45.3679 94.9562 45.3679 94.9562C45.3679 94.9562 43.5864 95.5802 43.4772 96.8625C43.368 98.1448 44.9093 98.0918 44.9093 98.0918C44.9093 98.0918 44.4132 99.3835 45.6799 99.8702" stroke="white" stroke-linecap="round" stroke-linejoin="round"/>
<path d="M47.1715 112.987C47.1715 112.987 52.9092 108.931 63.3518 113.193L71.1861 111.364C71.1861 111.364 76.253 125.127 73.2141 139.232C73.2141 139.232 66.4156 144.109 55.0339 144.084C42.688 144.053 39.6304 139.232 39.6304 139.232L41.3964 134.73C40.3324 129.588 38.9565 121.345 40.0048 117.077C41.5992 110.587 47.1715 112.987 47.1715 112.987Z" fill="#757575"/>
<g opacity="0.3">
<path d="M70.6184 140.689C70.1442 140.92 69.6013 141.163 69.0022 141.413C68.9523 140.817 68.9024 140.227 68.8587 139.644C68.815 139.061 68.7682 138.458 68.7277 137.875C68.5966 136.109 68.4874 134.418 68.3938 132.811C68.3585 132.2 68.3262 131.6 68.2971 131.011C68.1723 128.602 68.0818 126.387 68.0257 124.365C68.007 123.71 67.9903 123.077 67.9758 122.465C67.9321 120.319 67.9165 118.422 67.929 116.774C67.929 116.125 67.929 115.526 67.9477 114.94C67.9664 113.854 67.9914 112.906 68.0226 112.094L69.7042 111.701C69.6793 112.406 69.6512 113.233 69.6325 114.182C69.6325 114.765 69.6106 115.389 69.6044 116.054C69.6044 117.614 69.6044 119.445 69.6325 121.52C69.6325 122.144 69.646 122.796 69.673 123.476C69.725 125.527 69.8124 127.793 69.9351 130.275C69.9663 130.867 69.9944 131.476 70.0287 132.094C70.1223 133.703 70.2263 135.397 70.3407 137.173C70.3844 137.757 70.4291 138.35 70.4749 138.951C70.5279 139.529 70.5716 140.103 70.6184 140.689Z" fill="#06B3C4"/>
</g>
<g opacity="0.3">
<path d="M65.6604 112.647C65.5356 113.567 65.4045 114.668 65.2735 115.935C65.2111 116.509 65.1487 117.121 65.0925 117.763C64.9272 119.598 64.7805 121.695 64.662 124.003C64.6339 124.609 64.6058 125.23 64.5871 125.875C64.5122 127.938 64.4748 130.147 64.4997 132.477C64.4997 133.064 64.4997 133.657 64.5247 134.256C64.558 135.92 64.6245 137.646 64.7244 139.435C64.7587 140.009 64.793 140.589 64.8367 141.176C64.87 141.713 64.9105 142.252 64.9584 142.795C64.4311 142.939 63.882 143.076 63.311 143.201C63.2705 142.705 63.2299 142.212 63.1987 141.722C63.155 141.142 63.1176 140.564 63.0833 139.993C62.9741 138.196 62.9054 136.446 62.868 134.749C62.8493 134.159 62.8399 133.579 62.8337 133.001C62.8056 130.696 62.8337 128.506 62.8961 126.449C62.9148 125.825 62.9377 125.221 62.9647 124.637C63.0645 122.287 63.2112 120.144 63.3734 118.25C63.4296 117.626 63.4826 117.03 63.5388 116.462C63.6698 115.174 63.8009 114.032 63.9225 113.058L65.6604 112.647Z" fill="#06B3C4"/>
</g>
<g opacity="0.3">
<path d="M60.0697 112.051C59.9012 113.38 59.7016 115.171 59.5019 117.299C59.4478 117.85 59.3968 118.424 59.349 119.021C59.1868 121.002 59.037 123.23 58.9122 125.638C58.8841 126.206 58.856 126.78 58.8342 127.367C58.75 129.445 58.7 131.641 58.6907 133.919C58.6907 134.48 58.6907 135.048 58.6907 135.622C58.6907 137.432 58.7406 139.291 58.8186 141.179C58.8404 141.744 58.8654 142.308 58.8966 142.879C58.8966 143.21 58.9309 143.538 58.9528 143.868C58.4099 143.921 57.8545 143.968 57.2867 143.996C57.2711 143.737 57.2555 143.478 57.243 143.223C57.2118 142.658 57.1837 142.096 57.1619 141.535C57.0776 139.591 57.034 137.678 57.0215 135.813C57.0215 135.248 57.0215 134.689 57.0215 134.131C57.0215 131.85 57.0776 129.654 57.1588 127.579C57.1806 127.002 57.2024 126.437 57.2305 125.879C57.346 123.467 57.4957 121.227 57.6611 119.227C57.7079 118.64 57.7578 118.072 57.8077 117.529C58.0292 115.102 58.257 113.105 58.4317 111.667C58.9684 111.779 59.505 111.907 60.0697 112.051Z" fill="#06B3C4"/>
</g>
<g opacity="0.3">
<path d="M54.1541 144.062C53.5707 144.062 53.006 144.028 52.4631 143.99C52.4631 143.896 52.4412 143.8 52.4319 143.7C52.3757 143.157 52.3289 142.599 52.2915 142.021C52.1604 140.075 52.1199 137.965 52.0793 135.697C52.0793 135.604 52.0793 135.516 52.0793 135.423C52.0793 134.958 52.0637 134.487 52.0544 134C52.0169 131.969 51.9608 129.803 51.8328 127.517C51.8016 126.961 51.7673 126.393 51.7268 125.822C51.6706 125.014 51.6051 124.197 51.5271 123.364C51.3867 121.885 51.3149 120.556 51.2993 119.327C51.2993 118.734 51.2993 118.175 51.318 117.648C51.3479 115.518 51.6627 113.401 52.254 111.355C52.8518 111.287 53.4527 111.249 54.0543 111.243C53.6081 112.466 53.0964 114.534 52.9966 117.738C52.981 118.266 52.9748 118.821 52.9966 119.411C53.0091 120.553 53.0798 121.817 53.2088 123.205C53.2982 124.147 53.3741 125.073 53.4365 125.981C53.474 126.549 53.5083 127.108 53.5364 127.66C53.658 129.972 53.7111 132.156 53.7485 134.212C53.7485 134.618 53.7485 135.014 53.7704 135.407C53.7704 135.569 53.7704 135.719 53.7704 135.891C53.8109 138.075 53.8515 140.137 53.9825 142.009C54.02 142.583 54.0668 143.138 54.1292 143.675C54.1198 143.8 54.1385 143.931 54.1541 144.062Z" fill="#06B3C4"/>
</g>
<g opacity="0.3">
<path d="M48.5723 118.955C48.5075 120.04 48.5002 121.127 48.5504 122.213C48.6035 123.251 48.6253 124.237 48.6253 125.189C48.6253 125.779 48.6253 126.35 48.6035 126.917C48.5536 128.852 48.4288 130.686 48.2915 132.577C48.2915 132.746 48.2696 132.917 48.2572 133.089C48.2166 133.657 48.1792 134.231 48.1448 134.814C48.045 136.374 47.967 138 47.9483 139.75C47.9483 140.218 47.9483 140.686 47.9483 141.11C47.9608 141.751 47.9847 142.357 48.02 142.929C48.02 143.101 48.0388 143.273 48.0544 143.438C47.447 143.319 46.8792 143.186 46.3508 143.039C46.3352 142.789 46.3228 142.533 46.3103 142.268C46.2822 141.663 46.2697 141.02 46.2666 140.362C46.2666 140.156 46.2666 139.943 46.2666 139.738C46.2853 137.781 46.3789 135.994 46.4881 134.274C46.5287 133.682 46.5661 133.101 46.6067 132.524C46.6067 132.505 46.6067 132.484 46.6067 132.462C46.7471 130.443 46.8812 128.496 46.9187 126.421C46.9187 125.841 46.9187 125.251 46.9187 124.646C46.9187 123.891 46.8906 123.111 46.85 122.3C46.7915 121.059 46.8029 119.817 46.8844 118.578C46.9156 118.007 46.9624 117.439 47.0123 116.874C47.1496 115.417 47.3461 114.001 47.5552 112.731C48.0559 112.464 48.5776 112.238 49.1152 112.057H49.1308C49.2119 112.026 49.2961 111.998 49.3835 111.973C49.1058 113.533 48.825 115.377 48.6534 117.277C48.6409 117.829 48.6004 118.394 48.5723 118.955Z" fill="#06B3C4"/>
</g>
<g opacity="0.3">
<path d="M46.4883 112.753C46.7255 112.812 46.9158 112.877 47.0312 112.918C45.9036 113.638 45.0815 114.749 44.7224 116.038C44.5633 116.592 44.4742 117.163 44.4572 117.738C44.4406 118.138 44.4499 118.538 44.4853 118.937C44.6267 120.565 44.7162 122.138 44.7536 123.654C44.7755 124.278 44.7848 124.902 44.7848 125.526C44.7938 127.553 44.6969 129.58 44.4947 131.597C44.4385 132.19 44.3699 132.776 44.2887 133.354C44.2451 133.688 44.1983 134.022 44.1452 134.352C43.9487 135.6 43.7552 137.111 43.5961 138.649C43.5306 139.301 43.4682 139.956 43.4151 140.605C43.3798 141.048 43.3486 141.485 43.3215 141.915C42.7635 141.66 42.2245 141.365 41.7085 141.032C41.7491 140.493 41.799 139.953 41.8489 139.432C41.9175 138.708 41.9924 138.015 42.0673 137.382C42.2857 135.494 42.4916 134.131 42.4979 134.093C42.5727 133.605 42.6414 133.109 42.7038 132.605C42.7787 132.012 42.8411 131.412 42.891 130.805C43.0737 128.763 43.1456 126.712 43.1063 124.662C43.1063 124.007 43.0782 123.345 43.0501 122.668C43.0023 121.505 42.9253 120.307 42.8192 119.074C42.7532 118.385 42.7532 117.691 42.8192 117.002C42.8764 116.424 42.9946 115.854 43.1718 115.302C43.5045 114.255 44.0833 113.304 44.8597 112.528C45.4099 112.533 45.9572 112.609 46.4883 112.753Z" fill="#06B3C4"/>
</g>
<g opacity="0.3">
<path d="M72.2063 114.737C71.4918 115.143 70.6213 115.601 69.6011 116.063C69.0832 116.3 68.5257 116.537 67.9288 116.774C67.0614 117.118 66.1129 117.451 65.0927 117.763C64.5415 117.932 63.9684 118.091 63.3736 118.241C62.0469 118.576 60.7034 118.841 59.3488 119.033C58.7996 119.111 58.2318 119.177 57.6577 119.233C56.4347 119.355 55.1617 119.42 53.8264 119.42C53.583 119.42 53.3428 119.42 53.1025 119.42H52.9715C52.3974 119.42 51.8358 119.38 51.2929 119.336C50.3801 119.26 49.472 119.136 48.5723 118.965C47.9982 118.852 47.446 118.725 46.9156 118.584C46.0758 118.36 45.2506 118.085 44.4445 117.76C43.8746 117.534 43.3328 117.29 42.819 117.03C42.0095 116.622 41.2278 116.162 40.479 115.651C40.6941 115.134 40.9785 114.65 41.3245 114.21C41.9185 114.618 42.5352 114.992 43.1716 115.33C43.652 115.586 44.1668 115.832 44.7097 116.06C45.4696 116.382 46.2491 116.656 47.0435 116.88C47.5676 117.033 48.1168 117.164 48.6908 117.28C49.5563 117.457 50.4314 117.583 51.3116 117.657C51.8514 117.707 52.4068 117.735 52.9808 117.748H53.1306C53.3584 117.748 53.583 117.748 53.8076 117.748C55.1428 117.748 56.477 117.676 57.8044 117.533C58.3847 117.47 58.9504 117.395 59.5016 117.308C60.8626 117.099 62.2106 116.812 63.5389 116.45C64.1411 116.288 64.7183 116.113 65.2736 115.932C66.2408 115.62 67.1456 115.277 67.9475 114.937C68.5715 114.684 69.1144 114.428 69.6292 114.179C70.456 113.779 71.1611 113.398 71.7352 113.062C71.8787 113.536 72.0378 114.097 72.2063 114.737Z" fill="#06B3C4"/>
</g>
<g opacity="0.3">
<path d="M73.4979 120.98C72.2751 121.891 70.9965 122.725 69.6697 123.476C69.1487 123.788 68.6027 124.069 68.0255 124.356C66.9107 124.921 65.7649 125.422 64.5935 125.857C64.0443 126.063 63.4827 126.256 62.9024 126.431C61.5746 126.84 60.2191 127.153 58.8464 127.367C58.2973 127.451 57.7357 127.523 57.1679 127.573C56.3983 127.643 55.612 127.68 54.8091 127.682C54.3848 127.682 53.9543 127.682 53.5237 127.648C52.9652 127.619 52.4067 127.573 51.8389 127.504C51.7297 127.504 51.6205 127.479 51.5113 127.467C50.5357 127.338 49.5688 127.151 48.6159 126.905C48.0419 126.755 47.4886 126.589 46.9561 126.406C46.2136 126.152 45.4846 125.861 44.7721 125.532C44.1855 125.261 43.6271 124.971 43.0935 124.668C41.88 123.976 40.7314 123.176 39.6615 122.278C39.6303 121.482 39.6241 120.718 39.6615 119.994C40.7006 120.997 41.8367 121.895 43.053 122.674C43.5917 123.022 44.1595 123.348 44.7565 123.654C45.4731 124.022 46.2107 124.348 46.9655 124.631C47.5021 124.833 48.0637 125.014 48.6409 125.177C49.6538 125.46 50.6862 125.669 51.7297 125.801C52.2975 125.875 52.8591 125.928 53.4207 125.96C54.6932 126.028 55.9691 125.996 57.2365 125.863C57.8075 125.804 58.3722 125.726 58.9213 125.629C60.2973 125.391 61.6532 125.049 62.9773 124.606C63.5576 124.412 64.1255 124.203 64.6746 123.982C65.8066 123.529 66.9128 123.015 67.988 122.44C68.5725 122.128 69.1237 121.816 69.6416 121.504C70.8724 120.764 72.058 119.952 73.1922 119.071C73.292 119.695 73.3981 120.325 73.4979 120.98Z" fill="#06B3C4"/>
</g>
<g opacity="0.3">
<path d="M74.1846 129.657V130.034C72.9865 130.686 71.5794 131.401 70.0256 132.103C69.4983 132.343 68.9523 132.58 68.3938 132.811C67.1677 133.323 65.8666 133.813 64.525 134.246C63.9822 134.421 63.4268 134.586 62.8683 134.739C61.4962 135.127 60.1008 135.427 58.6906 135.638C58.1353 135.719 57.5799 135.781 57.0214 135.828C56.36 135.884 55.6954 135.916 55.0371 135.916C54.6066 135.916 54.1791 135.916 53.7517 135.878C53.2431 135.847 52.7377 135.794 52.2322 135.722L52.0794 135.697C50.751 135.501 49.4383 135.21 48.1513 134.827C47.5928 134.658 47.0468 134.477 46.507 134.284C45.7437 134.005 45.0001 133.706 44.2762 133.385C43.7334 133.146 43.205 132.896 42.6913 132.636C42.0319 132.31 41.3996 131.971 40.7943 131.619C40.6664 130.911 40.5416 130.175 40.4199 129.435C41.1937 129.916 42.0132 130.386 42.8785 130.846C43.3964 131.117 43.933 131.382 44.4822 131.638C45.1748 131.96 45.8893 132.262 46.6256 132.543C47.1591 132.746 47.7051 132.939 48.2636 133.111C49.5007 133.508 50.7658 133.812 52.0482 134.022C52.1886 134.047 52.329 134.069 52.4725 134.087C52.8843 134.147 53.3024 134.19 53.7205 134.221C54.8184 134.289 55.92 134.272 57.0152 134.168C57.5737 134.115 58.129 134.047 58.6875 133.956C60.0873 133.734 61.4713 133.421 62.8309 133.02C63.3925 132.858 63.9478 132.683 64.497 132.496C65.8167 132.053 67.0897 131.56 68.294 131.039C68.8556 130.802 69.4016 130.555 69.9289 130.312C71.545 129.56 72.9865 128.802 74.1596 128.147C74.1783 128.627 74.1846 129.139 74.1846 129.657Z" fill="#06B3C4"/>
</g>
<g opacity="0.3">
<path d="M73.8286 135.572C73.7911 135.884 73.7474 136.196 73.7006 136.508C73.6538 136.82 73.5914 137.213 73.5322 137.569C72.6898 137.969 71.6602 138.443 70.4839 138.951C69.9691 139.176 69.4231 139.404 68.8584 139.635C67.6104 140.143 66.2563 140.664 64.8367 141.157C64.297 141.344 63.751 141.528 63.1987 141.703C61.7885 142.152 60.3408 142.558 58.8962 142.886C58.344 143.017 57.7918 143.129 57.2426 143.229C56.2259 143.419 55.2002 143.559 54.1694 143.647H54.1102C53.6983 143.681 53.2865 143.694 52.8871 143.694C52.7342 143.694 52.5751 143.694 52.4316 143.694C50.9417 143.654 49.4653 143.4 48.048 142.939C47.466 142.751 46.8952 142.53 46.3382 142.277C45.3174 141.816 44.3392 141.266 43.4148 140.633C42.8501 140.252 42.3259 139.853 41.8548 139.46C41.2646 138.976 40.6992 138.463 40.1606 137.922L40.8408 136.196C41.1871 136.565 41.599 136.976 42.0732 137.41C42.5474 137.844 43.0404 138.249 43.602 138.677C44.4508 139.319 45.3538 139.885 46.3008 140.371C46.8451 140.655 47.4068 140.906 47.9825 141.12C49.3677 141.65 50.8283 141.958 52.3099 142.031C52.8653 142.055 53.4217 142.046 53.976 142.003H54.0478C55.0951 141.913 56.1366 141.767 57.1678 141.563C57.7169 141.457 58.2691 141.338 58.8245 141.207C60.2534 140.87 61.6918 140.452 63.0895 139.997C63.6449 139.816 64.194 139.628 64.7306 139.438C66.1471 138.933 67.5012 138.402 68.7336 137.878C69.3046 137.644 69.8443 137.41 70.356 137.185C71.8006 136.552 73.008 135.981 73.8286 135.572Z" fill="#06B3C4"/>
</g>
<path opacity="0.2" d="M63.4112 113.168C61.1118 114.478 55.5832 117.317 51.471 117.002C48.17 116.749 46.791 114.559 46.479 112.753C46.7161 112.81 46.9486 112.886 47.1748 112.977C47.1748 112.977 52.9124 108.921 63.3551 113.183L63.4112 113.168Z" fill="black" fill-opacity="0.7"/>
<path opacity="0.2" d="M55.9917 144.062C55.6797 144.062 55.3677 144.062 55.0338 144.062C42.6911 144.031 39.6304 139.207 39.6304 139.207L41.3994 134.705C40.645 131.198 40.1012 127.65 39.7708 124.078C40.7349 126.072 46.7346 137.632 55.6172 137.582C61.9134 137.557 58.8995 141.379 55.9917 144.062Z" fill="black" fill-opacity="0.7"/>
<path opacity="0.2" d="M74.1842 129.657C74.1911 131.954 74.0294 134.248 73.7006 136.521C70.4402 132.593 71.4667 125.47 71.4667 125.47C71.8973 128.243 73.3387 129.279 74.1842 129.657Z" fill="black" fill-opacity="0.7"/>
<path d="M47.1715 112.987C47.1715 112.987 52.9092 108.931 63.3518 113.193L71.1861 111.364C71.1861 111.364 76.253 125.127 73.2141 139.232C73.2141 139.232 66.4156 144.109 55.0339 144.084C42.688 144.053 39.6304 139.232 39.6304 139.232L41.3964 134.73C40.3324 129.588 38.9565 121.345 40.0048 117.077C41.5992 110.587 47.1715 112.987 47.1715 112.987Z" stroke="#263238" stroke-linecap="round" stroke-linejoin="round"/>
<path d="M51.062 115.199C54.6687 115.339 59.0492 115.314 62.1942 113.308" stroke="#263238" stroke-linecap="round" stroke-linejoin="round"/>
<path d="M49.0435 115.065C49.3555 115.099 49.6893 115.124 50.0138 115.146" stroke="#263238" stroke-linecap="round" stroke-linejoin="round"/>
<path d="M51.8267 137.501C51.8461 138.082 51.9288 138.659 52.0731 139.223" stroke="#263238" stroke-linecap="round" stroke-linejoin="round"/>
<path d="M50.878 116.019C50.2545 117.427 50.0549 118.986 50.3039 120.506C51.6954 125.81 52.5316 130.802 51.814 136.181" stroke="#263238" stroke-linecap="round" stroke-linejoin="round"/>
<path d="M52.8438 133.891C54.6563 134.339 56.5485 134.357 58.3693 133.944" stroke="#263238" stroke-linecap="round" stroke-linejoin="round"/>
<path d="M41.521 122.681C43.4804 127.304 47.0184 131.248 51.5456 133.469" stroke="#263238" stroke-linecap="round" stroke-linejoin="round"/>
<path d="M40.5977 120.06C40.7037 120.434 40.8192 120.809 40.9471 121.18" stroke="#263238" stroke-linecap="round" stroke-linejoin="round"/>
<path d="M71.1863 111.355C70.605 115.813 70.6691 120.331 71.3766 124.771C72.5435 132.259 74.3718 132.187 74.3718 132.187C74.3718 132.187 84.8082 119.289 87.5975 114.076C87.5975 114.076 86.9361 106.588 84.0001 104.996L71.1863 111.355Z" fill="#757575"/>
<g opacity="0.3">
<path d="M85.7256 117.099C85.3044 117.723 84.852 118.387 84.3715 119.068C84.125 117.586 83.838 116.216 83.526 114.949C83.3762 114.325 83.2181 113.731 83.0517 113.168C82.6992 111.92 82.3217 110.803 81.941 109.789C81.733 109.217 81.5167 108.68 81.2921 108.179C81.0591 107.636 80.8293 107.134 80.6025 106.672L82.1189 105.917C82.3123 106.307 82.5057 106.719 82.7023 107.165C82.9238 107.667 83.1453 108.201 83.3669 108.775C83.7413 109.736 84.1073 110.8 84.4651 111.966C84.6336 112.531 84.8021 113.121 84.9581 113.739C85.2368 114.783 85.4926 115.903 85.7256 117.099Z" fill="#06B3C4"/>
</g>
<g opacity="0.3">
<path d="M81.9001 122.471C81.4071 123.13 80.9173 123.785 80.4274 124.425C80.225 122.33 79.9126 120.247 79.4914 118.185C79.3687 117.561 79.2377 116.958 79.0983 116.378C78.7614 114.915 78.3869 113.57 78.0094 112.341C77.8285 111.767 77.6475 111.219 77.4665 110.697C77.2076 109.938 76.9486 109.243 76.7021 108.609L78.2185 107.857C78.4493 108.441 78.6927 109.077 78.9361 109.77C79.1212 110.288 79.3063 110.836 79.4914 111.414C79.8565 112.572 80.2215 113.842 80.5585 115.217C80.702 115.802 80.8414 116.404 80.9766 117.024C81.3416 118.706 81.6567 120.521 81.9001 122.471Z" fill="#06B3C4"/>
</g>
<g opacity="0.3">
<path d="M77.9474 127.651C77.4357 128.312 76.9553 128.92 76.5216 129.47C76.1409 126.69 75.6605 123.944 75.1488 121.358C75.0302 120.752 74.9096 120.157 74.7869 119.573C74.4281 117.854 74.0599 116.231 73.7073 114.749C73.5701 114.166 73.4328 113.608 73.3017 113.074C73.0802 112.175 72.8681 111.349 72.6777 110.603L74.2065 109.842C74.3969 110.566 74.6059 111.367 74.8305 112.244C74.9678 112.781 75.1051 113.342 75.2486 113.929C75.5825 115.333 75.935 116.871 76.2845 118.506C76.4093 119.089 76.5341 119.688 76.6589 120.297C77.1144 122.659 77.5668 125.123 77.9474 127.651Z" fill="#06B3C4"/>
</g>
<g opacity="0.3">
<path d="M85.7379 106.959C85.0203 107.53 84.2309 108.141 83.3667 108.772C82.9112 109.106 82.4359 109.445 81.9409 109.789C81.1858 110.321 80.3715 110.867 79.4979 111.427C79.0205 111.739 78.5245 112.051 78.0159 112.363C77.1319 112.899 76.2042 113.434 75.2329 113.966C74.7337 114.241 74.2282 114.512 73.7072 114.784C72.7712 115.267 71.8133 115.748 70.8149 116.216C70.8149 115.523 70.8555 114.893 70.8929 114.328C71.7249 113.929 72.5278 113.523 73.3016 113.111C73.8164 112.834 74.3218 112.559 74.8148 112.282C75.7508 111.764 76.6275 111.239 77.473 110.722C77.9785 110.412 78.4683 110.1 78.9425 109.786C79.7725 109.249 80.5556 108.715 81.2919 108.194C81.7817 107.848 82.2529 107.511 82.7021 107.177C83.4478 106.625 84.1342 106.091 84.7645 105.589C84.9697 105.801 85.1556 106.031 85.3198 106.276C85.4738 106.494 85.6135 106.722 85.7379 106.959Z" fill="#06B3C4"/>
</g>
<g opacity="0.3">
<path d="M87.2575 111.739C86.5337 112.381 85.7661 113.052 84.9581 113.742C84.4921 114.141 84.0148 114.546 83.526 114.955C82.7054 115.639 81.8568 116.334 80.9832 117.03C80.4965 117.417 80.0004 117.807 79.4981 118.191C78.5621 118.908 77.6105 119.623 76.6433 120.319C76.1472 120.677 75.6511 121.03 75.1488 121.376C73.8602 122.266 72.5529 123.117 71.2519 123.9C71.1645 123.276 71.0959 122.671 71.0366 122.078C72.2846 121.301 73.5326 120.462 74.7806 119.582C75.2767 119.233 75.7728 118.88 76.2626 118.518C77.2267 117.816 78.1752 117.096 79.0987 116.372C79.5917 115.985 80.0815 115.598 80.5589 115.211C81.4169 114.525 82.2468 113.835 83.0549 113.161C83.5353 112.753 84.0096 112.353 84.4682 111.957C85.3044 111.23 86.0969 110.528 86.8363 109.864C87.0079 110.519 87.1483 111.158 87.2575 111.739Z" fill="#06B3C4"/>
</g>
<path opacity="0.2" d="M87.5973 114.063C84.8049 119.277 74.3685 132.175 74.3685 132.175C74.3685 132.175 72.8085 132.24 71.6572 126.365C72.509 129.532 74.8178 129.857 74.8178 129.857L85.4507 115.795C84.3182 113.386 85.2916 106.453 85.3197 106.269C87.1449 108.931 87.5973 114.063 87.5973 114.063Z" fill="black" fill-opacity="0.7"/>
<path d="M71.1863 111.355C70.605 115.813 70.6691 120.331 71.3766 124.771C72.5435 132.259 74.3718 132.187 74.3718 132.187C74.3718 132.187 84.8082 119.289 87.5975 114.076C87.5975 114.076 86.9361 106.588 84.0001 104.996L71.1863 111.355Z" stroke="#263238" stroke-linecap="round" stroke-linejoin="round"/>
<path d="M63.3518 113.183C63.3518 113.183 59.0306 110.013 53.3022 109.346C47.5739 108.678 47.7362 112.051 47.7362 112.051C47.502 112.149 47.3144 112.333 47.2122 112.565C47.11 112.797 47.101 113.06 47.187 113.299C47.4242 114.257 55.1805 115.171 63.3518 113.183Z" fill="#757575"/>
<g opacity="0.3">
<path d="M52.9591 109.308C52.8034 109.685 52.669 110.071 52.5566 110.463C52.4162 110.931 52.2758 111.486 52.1479 112.135C52.02 112.784 51.9139 113.501 51.8359 114.319C51.2119 114.291 50.669 114.244 50.1636 114.191C50.2416 113.414 50.3445 112.718 50.4537 112.094C50.5629 111.47 50.694 110.903 50.8281 110.41C50.9405 109.982 51.059 109.608 51.1745 109.274C51.7692 109.235 52.3662 109.247 52.9591 109.308Z" fill="#06B3C4"/>
</g>
<g opacity="0.3">
<path d="M57.5423 110.313C57.5423 110.525 57.5423 110.753 57.5423 110.999C57.5204 111.492 57.4861 112.054 57.4206 112.684C57.3738 113.152 57.3114 113.657 57.2334 114.197C56.6437 114.25 56.0727 114.288 55.5205 114.316C55.6297 113.633 55.7077 113.005 55.7639 112.444C55.8263 111.804 55.8606 111.243 55.8762 110.762C55.8762 110.403 55.8762 110.091 55.8762 109.826C56.4503 109.963 57.0119 110.132 57.5423 110.313Z" fill="#06B3C4"/>
</g>
<g opacity="0.3">
<path d="M63.3518 113.183C62.7278 113.33 62.1412 113.464 61.5391 113.583C60.0883 113.193 58.703 112.899 57.4082 112.684C56.8372 112.587 56.2881 112.506 55.7515 112.438C54.4317 112.266 53.2243 112.179 52.1479 112.126C51.5239 112.101 50.9654 112.094 50.4443 112.097C49.4282 112.099 48.4129 112.153 47.4023 112.26C47.4924 112.17 47.5981 112.097 47.7143 112.044C47.7249 111.471 47.9357 110.919 48.3103 110.484C48.9873 110.435 49.8297 110.4 50.8063 110.403C51.3429 110.403 51.9232 110.403 52.5441 110.444C53.5456 110.494 54.6532 110.584 55.8513 110.737C56.3879 110.802 56.9433 110.883 57.5174 110.981C58.5376 111.149 59.6171 111.361 60.7372 111.633C61.6469 112.082 62.521 112.601 63.3518 113.183Z" fill="#06B3C4"/>
</g>
<path d="M63.3518 113.183C63.3518 113.183 59.0305 110.013 53.3022 109.346C47.5739 108.678 47.7362 112.051 47.7362 112.051C47.502 112.149 47.3144 112.333 47.2122 112.565C47.11 112.797 47.101 113.06 47.187 113.299C47.4242 114.257 55.1805 115.171 63.3518 113.183Z" stroke="#263238" stroke-linecap="round" stroke-linejoin="round"/>
<path d="M53.9761 111.689C54.5306 111.768 55.0782 111.891 55.6141 112.054" stroke="#263238" stroke-linecap="round" stroke-linejoin="round"/>
<path d="M47.7363 112.051C49.4089 111.633 51.1351 111.471 52.8562 111.57" stroke="#263238" stroke-linecap="round" stroke-linejoin="round"/>
<path d="M37.8145 111.664C37.8145 112.213 37.8613 112.762 37.9205 113.308" stroke="#263238" stroke-linecap="round" stroke-linejoin="round"/>
<path d="M40.3232 104.984C38.5884 106.12 37.9738 108.581 37.8271 110.503" stroke="#263238" stroke-linecap="round" stroke-linejoin="round"/>
<path d="M81.4882 119.492C81.0475 119.966 80.5174 120.349 79.9282 120.618" stroke="#263238" stroke-linecap="round" stroke-linejoin="round"/>
<path d="M86.4242 108.566C85.379 111.873 84.2652 115.495 82.2715 118.55" stroke="#263238" stroke-linecap="round" stroke-linejoin="round"/>
<path d="M74.3714 132.175C74.3714 132.175 72.7615 132.958 70.6274 128.543" stroke="#263238" stroke-linecap="round" stroke-linejoin="round"/>
<path d="M71.6977 136.405C70.1377 139.117 67.9287 141.638 64.9585 142.786" stroke="#263238" stroke-linecap="round" stroke-linejoin="round"/>
<path d="M72.8991 133.891C72.7369 134.331 72.5466 134.758 72.3438 135.179" stroke="#263238" stroke-linecap="round" stroke-linejoin="round"/>
</svg>
