<svg width="24" height="23" viewBox="0 0 24 23" fill="none" xmlns="http://www.w3.org/2000/svg">
<path d="M12 22.5335C10.6167 22.5335 9.24699 22.261 7.969 21.7317C6.69102 21.2023 5.52982 20.4264 4.55169 19.4483C3.57356 18.4702 2.79767 17.309 2.26831 16.031C1.73895 14.753 1.4665 13.3833 1.4665 12C1.4665 10.6167 1.73895 9.24699 2.26831 7.969C2.79767 6.69102 3.57356 5.52982 4.55169 4.55169C5.52982 3.57356 6.69102 2.79767 7.969 2.26831C9.24699 1.73896 10.6167 1.4665 12 1.4665C14.7937 1.4665 17.4729 2.57627 19.4483 4.55169C21.4237 6.5271 22.5335 9.20634 22.5335 12C22.5335 14.7937 21.4237 17.4729 19.4483 19.4483C17.4729 21.4237 14.7937 22.5335 12 22.5335ZM12 20.1927C13.0759 20.1927 14.1412 19.9808 15.1352 19.5691C16.1292 19.1574 17.0324 18.5539 17.7931 17.7931C18.5539 17.0324 19.1574 16.1292 19.5691 15.1352C19.9808 14.1412 20.1927 13.0759 20.1927 12C20.1927 10.9241 19.9808 9.85877 19.5691 8.86478C19.1574 7.87079 18.5539 6.96764 17.7931 6.20687C17.0324 5.44611 16.1292 4.84263 15.1352 4.43091C14.1412 4.01919 13.0759 3.80728 12 3.80728C9.82716 3.80728 7.7433 4.67044 6.20687 6.20687C4.67043 7.7433 3.80728 9.82716 3.80728 12C3.80728 14.1728 4.67043 16.2567 6.20687 17.7931C7.7433 19.3296 9.82716 20.1927 12 20.1927ZM13.1704 12H16.6816V14.3408H10.8296V6.14806H13.1704V12ZM0 4.13733L4.13733 0L5.79343 1.65493L1.65376 5.79343L0 4.13733ZM19.8615 0L24 4.13733L22.3451 5.79343L18.2066 1.65493L19.8627 0H19.8615Z" fill="#1C3677"/>
</svg>
