<svg width="156" height="157" viewBox="0 0 156 157" fill="none" xmlns="http://www.w3.org/2000/svg">
<path d="M127.988 69.5256C127.879 68.9016 127.782 68.3088 127.704 67.6973C127.252 64.1373 123.96 47.5545 101.671 37.4956C76.5833 26.1794 59.6323 37.8076 49.4611 46.9773C39.2899 56.147 32.1732 75.4161 26.4106 92.236C20.6479 109.056 34.2106 121.901 50.8183 127.408C67.4261 132.915 88.4487 133.523 104.723 127.72C120.816 121.967 134.26 103.952 127.988 69.5256Z" fill="#06B3C4"/>
<path opacity="0.75" d="M127.988 69.5256C127.879 68.9016 127.782 68.3088 127.704 67.6973C127.252 64.1373 123.96 47.5545 101.671 37.4956C76.5833 26.1794 59.6323 37.8076 49.4611 46.9773C39.2899 56.147 32.1732 75.4161 26.4106 92.236C20.6479 109.056 34.2106 121.901 50.8183 127.408C67.4261 132.915 88.4487 133.523 104.723 127.72C120.816 121.967 134.26 103.952 127.988 69.5256Z" fill="white"/>
<path d="M93.4282 25.0344V88.6668L111.262 119.873H128.36" stroke="#263238" stroke-linecap="round" stroke-linejoin="round"/>
<path d="M93.4285 87.035H81.3759L35.3247 125.904C34.7187 126.415 34.2309 127.052 33.8953 127.77C33.5597 128.489 33.3842 129.271 33.3809 130.064C33.3776 130.857 33.5467 131.641 33.8764 132.362C34.2061 133.084 34.6886 133.724 35.2904 134.241V134.241C36.2832 135.09 37.5468 135.557 38.8534 135.557H127.964" stroke="#263238" stroke-linecap="round" stroke-linejoin="round"/>
<path d="M33.3839 130.877C33.3788 131.67 33.547 132.455 33.8768 133.176C34.2067 133.897 34.6901 134.537 35.2933 135.052V135.052C36.2852 135.9 37.5479 136.366 38.8533 136.365H127.964" stroke="#263238" stroke-linecap="round" stroke-linejoin="round"/>
<path d="M25.9272 102.039L71.9254 88.8009" stroke="#263238" stroke-linecap="round" stroke-linejoin="round"/>
<path d="M56.8526 20.7693V90.779L23.7119 98.3918" stroke="#263238" stroke-linecap="round" stroke-linejoin="round"/>
<path d="M63.8789 89.1722L71.5915 87.5373" stroke="#263238" stroke-miterlimit="10"/>
<path d="M57.0772 46.7995L63.8819 46.6528V89.1722L56.8525 89.3188" stroke="#263238" stroke-linecap="round" stroke-linejoin="round"/>
<path d="M64.0347 46.7995L73.9063 55.3264V69.5256" stroke="#263238" stroke-linecap="round" stroke-linejoin="round"/>
<path d="M72.7832 51.7353V47.0241H77.7222V64.078" stroke="#263238" stroke-linecap="round" stroke-linejoin="round"/>
<path d="M77.7222 47.0241L80.4147 51.0614V59.5884H83.5566V62.9548" stroke="#263238" stroke-linecap="round" stroke-linejoin="round"/>
<path d="M83.5566 59.5884L84.9014 61.6101" stroke="#263238" stroke-linecap="round" stroke-linejoin="round"/>
<path d="M93.4627 31.836H86.4458V69.6847H93.4627V31.836Z" stroke="#263238" stroke-linecap="round" stroke-linejoin="round"/>
<path d="M101.362 52.3874H96.2642V72.4833H101.362V52.3874Z" stroke="#263238" stroke-linecap="round" stroke-linejoin="round"/>
<path d="M98.8042 51.4982L111.262 43.3893" stroke="#263238" stroke-linecap="round" stroke-linejoin="round"/>
<path d="M111.047 37.7234L95.9648 50.5872" stroke="#263238" stroke-linecap="round" stroke-linejoin="round"/>
<path d="M111.262 26.8939L101.562 38.9184" stroke="#263238" stroke-linecap="round" stroke-linejoin="round"/>
<path d="M101.447 67.4945L111.262 65.2855" stroke="#263238" stroke-linecap="round" stroke-linejoin="round"/>
<path d="M94.2207 69.1418L96.1489 68.652" stroke="#263238" stroke-linecap="round" stroke-linejoin="round"/>
<path d="M111.262 119.876V23.2934" stroke="#263238" stroke-linecap="round" stroke-linejoin="round"/>
<path d="M111.262 65.2855H130.104" stroke="#263238" stroke-linecap="round" stroke-linejoin="round"/>
<path d="M101.447 66.3775L111.262 63.4509" stroke="#263238" stroke-linecap="round" stroke-linejoin="round"/>
<path d="M111.262 63.4509H130.104" stroke="#263238" stroke-linecap="round" stroke-linejoin="round"/>
<path d="M101.35 63.4759L110.929 58.7491H124.151" stroke="#263238" stroke-linecap="round" stroke-linejoin="round"/>
<path d="M94.2363 66.989L96.2768 65.9812" stroke="#263238" stroke-linecap="round" stroke-linejoin="round"/>
<path d="M86.4893 39.9417H93.2316" stroke="#263238" stroke-linecap="round" stroke-linejoin="round"/>
<path d="M86.4893 47.386H93.2316" stroke="#263238" stroke-linecap="round" stroke-linejoin="round"/>
<path d="M86.4893 54.8304H93.2316" stroke="#263238" stroke-linecap="round" stroke-linejoin="round"/>
<path d="M86.4893 62.2716H93.2316" stroke="#263238" stroke-linecap="round" stroke-linejoin="round"/>
<path d="M106.045 52.4373H94.8478C94.7876 52.4373 94.7279 52.4255 94.6723 52.4024C94.6166 52.3794 94.5661 52.3456 94.5235 52.303C94.4809 52.2604 94.4471 52.2098 94.4241 52.1542C94.401 52.0986 94.3892 52.0389 94.3892 51.9787C94.3892 51.9185 94.401 51.8588 94.4241 51.8032C94.4471 51.7475 94.4809 51.697 94.5235 51.6544C94.5661 51.6118 94.6166 51.578 94.6723 51.555C94.7279 51.5319 94.7876 51.5201 94.8478 51.5201H106.061C106.121 51.5201 106.181 51.5319 106.237 51.555C106.292 51.578 106.343 51.6118 106.385 51.6544C106.428 51.697 106.462 51.7475 106.485 51.8032C106.508 51.8588 106.52 51.9185 106.52 51.9787C106.52 52.0389 106.508 52.0986 106.485 52.1542C106.462 52.2098 106.428 52.2604 106.385 52.303C106.343 52.3456 106.292 52.3794 106.237 52.4024C106.181 52.4255 106.121 52.4373 106.061 52.4373H106.045Z" stroke="#263238" stroke-miterlimit="10"/>
<path d="M96.2612 25.6677V48.0943" stroke="#263238" stroke-linecap="round" stroke-linejoin="round"/>
<path d="M98.7075 23.6273V46.4625" stroke="#263238" stroke-linecap="round" stroke-linejoin="round"/>
<path d="M101.562 21.5899V43.8105" stroke="#263238" stroke-linecap="round" stroke-linejoin="round"/>
<path d="M101.562 34.1354L108.697 22.8129" stroke="#263238" stroke-linecap="round" stroke-linejoin="round"/>
<path d="M56.8809 52.9334H63.7823L72.8646 58.8708" stroke="#263238" stroke-linecap="round" stroke-linejoin="round"/>
<path d="M56.8809 58.2655H63.7823L72.8646 63.713" stroke="#263238" stroke-linecap="round" stroke-linejoin="round"/>
<path d="M56.8809 63.5913H63.7823L72.8646 68.4367" stroke="#263238" stroke-linecap="round" stroke-linejoin="round"/>
<path d="M56.8809 68.9203H63.7823L72.0191 72.5551" stroke="#263238" stroke-linecap="round" stroke-linejoin="round"/>
<path d="M56.8809 74.2493H63.7823L69.7165 76.2211" stroke="#263238" stroke-linecap="round" stroke-linejoin="round"/>
<path d="M56.8809 79.5782H63.7823L65.7604 80.0025" stroke="#263238" stroke-linecap="round" stroke-linejoin="round"/>
<path d="M62.2098 54.7524H60.7559V57.5385H62.2098V54.7524Z" stroke="#263238" stroke-linecap="round" stroke-linejoin="round"/>
<path d="M59.3016 54.7524H57.8477V57.5385H59.3016V54.7524Z" stroke="#263238" stroke-linecap="round" stroke-linejoin="round"/>
<path d="M62.2098 59.838H60.7559V62.6241H62.2098V59.838Z" stroke="#263238" stroke-linecap="round" stroke-linejoin="round"/>
<path d="M59.3016 59.838H57.8477V62.6241H59.3016V59.838Z" stroke="#263238" stroke-linecap="round" stroke-linejoin="round"/>
<path d="M62.2098 64.805H60.7559V67.5912H62.2098V64.805Z" stroke="#263238" stroke-linecap="round" stroke-linejoin="round"/>
<path d="M59.3016 64.805H57.8477V67.5912H59.3016V64.805Z" stroke="#263238" stroke-linecap="round" stroke-linejoin="round"/>
<path d="M62.2098 70.1309H60.7559V72.917H62.2098V70.1309Z" stroke="#263238" stroke-linecap="round" stroke-linejoin="round"/>
<path d="M59.3016 70.1309H57.8477V72.917H59.3016V70.1309Z" stroke="#263238" stroke-linecap="round" stroke-linejoin="round"/>
<path d="M62.2098 75.4598H60.7559V78.246H62.2098V75.4598Z" stroke="#263238" stroke-linecap="round" stroke-linejoin="round"/>
<path d="M59.3016 75.4598H57.8477V78.246H59.3016V75.4598Z" stroke="#263238" stroke-linecap="round" stroke-linejoin="round"/>
<path d="M62.2098 80.9104H60.7559V83.6966H62.2098V80.9104Z" stroke="#263238" stroke-linecap="round" stroke-linejoin="round"/>
<path d="M59.3016 80.9104H57.8477V83.6966H59.3016V80.9104Z" stroke="#263238" stroke-linecap="round" stroke-linejoin="round"/>
<path d="M62.2098 48.9398H60.7559V51.726H62.2098V48.9398Z" stroke="#263238" stroke-linecap="round" stroke-linejoin="round"/>
<path d="M66.2063 53.4201L65.1143 52.5715V49.7853L66.2063 50.634" stroke="#263238" stroke-linecap="round" stroke-linejoin="round"/>
<path d="M65.1143 54.9926L66.2063 55.8413V58.6274L65.1143 57.7788" stroke="#263238" stroke-linecap="round" stroke-linejoin="round"/>
<path d="M66.2063 61.2919V63.7785L65.1143 63.2294V60.4433" stroke="#263238" stroke-linecap="round" stroke-linejoin="round"/>
<path d="M66.2063 68.5896L65.1143 68.0404V65.2543L66.2063 65.9157V68.5896Z" stroke="#263238" stroke-linecap="round" stroke-linejoin="round"/>
<path d="M66.2063 73.6939L65.1143 73.2914V70.5052L66.2063 71.02" stroke="#263238" stroke-linecap="round" stroke-linejoin="round"/>
<path d="M59.3016 48.9398H57.8477V51.726H59.3016V48.9398Z" stroke="#263238" stroke-linecap="round" stroke-linejoin="round"/>
<path d="M102.988 105.587V68.8891L107.88 68.2776V113.539" stroke="#263238" stroke-linecap="round" stroke-linejoin="round"/>
<path d="M98.0957 96.8193V73.3757" stroke="#263238" stroke-linecap="round" stroke-linejoin="round"/>
<path d="M99.1128 98.4511V74.5987" stroke="#263238" stroke-linecap="round" stroke-linejoin="round"/>
<path d="M104.211 35.658V42.3847" stroke="#263238" stroke-linecap="round" stroke-linejoin="round"/>
<path d="M106.548 33.0278V39.7545" stroke="#263238" stroke-linecap="round" stroke-linejoin="round"/>
<path d="M104.211 22.5134V29.7549" stroke="#263238" stroke-linecap="round" stroke-linejoin="round"/>
<path d="M106.548 19.8832V26.0546" stroke="#263238" stroke-linecap="round" stroke-linejoin="round"/>
<path d="M24.1177 100.694L73.2358 87.9991" stroke="#263238" stroke-linecap="round" stroke-linejoin="round"/>
<path d="M27.7554 75.2102L56.7059 76.8389" stroke="#263238" stroke-linecap="round" stroke-linejoin="round"/>
<path d="M27.7554 70.5209L56.7059 74.3928" stroke="#263238" stroke-linecap="round" stroke-linejoin="round"/>
<path d="M42.0264 94.0207V77.5627L37.1343 77.3786V95.1533" stroke="#263238" stroke-linecap="round" stroke-linejoin="round"/>
<path d="M46.7155 92.9349V77.7374L43.4551 77.6157V93.69" stroke="#263238" stroke-linecap="round" stroke-linejoin="round"/>
<path d="M35.7082 95.484V77.3256L28.1641 77.0448V97.228" stroke="#263238" stroke-linecap="round" stroke-linejoin="round"/>
<path d="M55.4828 90.9069V78.0619L48.1445 77.7905V92.6073" stroke="#263238" stroke-linecap="round" stroke-linejoin="round"/>
<path d="M67.1611 53.8351V50.9366" stroke="#263238" stroke-linecap="round" stroke-linejoin="round"/>
<path d="M67.1611 59.0205V56.122" stroke="#263238" stroke-linecap="round" stroke-linejoin="round"/>
<path d="M67.1611 69.0888V66.1903" stroke="#263238" stroke-linecap="round" stroke-linejoin="round"/>
<path d="M67.1611 74.1993V71.3008" stroke="#263238" stroke-linecap="round" stroke-linejoin="round"/>
<path d="M68.228 69.7003V66.8018" stroke="#263238" stroke-linecap="round" stroke-linejoin="round"/>
<path d="M69.373 65.5819V62.6834" stroke="#263238" stroke-linecap="round" stroke-linejoin="round"/>
<path d="M70.2871 66.2683V63.3698" stroke="#263238" stroke-linecap="round" stroke-linejoin="round"/>
<path d="M70.2871 61.2326V58.3341" stroke="#263238" stroke-linecap="round" stroke-linejoin="round"/>
<path d="M111.549 68.0748H121.948" stroke="#263238" stroke-linecap="round" stroke-linejoin="round"/>
<path d="M111.549 71.538H121.948" stroke="#263238" stroke-linecap="round" stroke-linejoin="round"/>
<path d="M111.549 75.0043H121.948" stroke="#263238" stroke-linecap="round" stroke-linejoin="round"/>
<path d="M111.549 78.4706H121.948" stroke="#263238" stroke-linecap="round" stroke-linejoin="round"/>
<path d="M111.549 81.9369H121.948" stroke="#263238" stroke-linecap="round" stroke-linejoin="round"/>
<path d="M111.549 85.4033H121.948" stroke="#263238" stroke-linecap="round" stroke-linejoin="round"/>
<path d="M111.549 88.8696H121.948" stroke="#263238" stroke-linecap="round" stroke-linejoin="round"/>
<path d="M111.549 92.3359H121.948" stroke="#263238" stroke-linecap="round" stroke-linejoin="round"/>
<path d="M111.549 95.8022H121.948" stroke="#263238" stroke-linecap="round" stroke-linejoin="round"/>
<path d="M111.549 99.2685H121.948" stroke="#263238" stroke-linecap="round" stroke-linejoin="round"/>
<path d="M111.549 102.732H121.948" stroke="#263238" stroke-linecap="round" stroke-linejoin="round"/>
<path d="M111.549 106.198H121.948" stroke="#263238" stroke-linecap="round" stroke-linejoin="round"/>
<path d="M121.948 65.22V110.482H123.989V118.84" stroke="#263238" stroke-linecap="round" stroke-linejoin="round"/>
<path d="M121.948 110.482H112.569" stroke="#263238" stroke-linecap="round" stroke-linejoin="round"/>
<path d="M93.812 85.606L97.0755 88.258" stroke="#263238" stroke-linecap="round" stroke-linejoin="round"/>
<path d="M93.2007 73.1697H88.7173" stroke="#263238" stroke-linecap="round" stroke-linejoin="round"/>
<path d="M88.9917 73.2446V76.8045H90.664V73.2977" stroke="#263238" stroke-linecap="round" stroke-linejoin="round"/>
<path d="M52.9492 73.7282V19.3497" stroke="#263238" stroke-miterlimit="10"/>
<path d="M55.124 73.9466V33.7048" stroke="#263238" stroke-miterlimit="10"/>
<path d="M49.2524 73.5098V24.7879" stroke="#263238" stroke-miterlimit="10"/>
<path d="M45.1182 72.6424V26.7472" stroke="#263238" stroke-miterlimit="10"/>
<path d="M41.4209 72.2057V25.8768" stroke="#263238" stroke-miterlimit="10"/>
<path d="M36.6348 71.5536V23.2653" stroke="#263238" stroke-miterlimit="10"/>
<path d="M31.6338 71.3352V25.0063" stroke="#263238" stroke-miterlimit="10"/>
<path d="M28.8037 62.6366L55.3424 69.3197" stroke="#263238" stroke-miterlimit="10"/>
<path d="M29.459 55.0238L54.9899 63.2044" stroke="#263238" stroke-miterlimit="10"/>
<path d="M35.1123 47.8447L55.2238 56.9707" stroke="#263238" stroke-miterlimit="10"/>
<path d="M35.1123 26.9625L55.1053 40.8559" stroke="#263238" stroke-miterlimit="10"/>
<path d="M50.2225 42.8402L40.4351 42.3317V38.2538L50.2225 37.7421V42.8402Z" fill="#06B3C4" stroke="#263238" stroke-linecap="round" stroke-linejoin="round"/>
<path d="M68.3653 29.5459H50.4253V34.644H68.3653V29.5459Z" fill="#06B3C4" stroke="#263238" stroke-linecap="round" stroke-linejoin="round"/>
<path d="M55.9724 33.0559C55.9237 33.0919 55.8644 33.1105 55.8039 33.1089C55.7425 33.1101 55.6823 33.0915 55.6323 33.0559C55.5792 33.0184 55.5415 32.963 55.5262 32.8999L55.1425 31.6113L54.7587 32.8999C54.7434 32.963 54.7057 33.0184 54.6526 33.0559C54.6026 33.0915 54.5424 33.1101 54.481 33.1089C54.4205 33.1105 54.3612 33.0919 54.3125 33.0559C54.2622 33.0211 54.2266 32.9688 54.2127 32.9093L53.8196 31.421C53.8186 31.4044 53.8186 31.3877 53.8196 31.3711C53.8186 31.3474 53.8232 31.3237 53.8329 31.3021C53.8427 31.2804 53.8573 31.2613 53.8757 31.2463C53.9111 31.2151 53.9565 31.1974 54.0037 31.1964C54.0423 31.1958 54.08 31.2091 54.1097 31.2338C54.1427 31.2604 54.1649 31.2981 54.1721 31.3399L54.5091 32.7221L54.9116 31.4179C54.924 31.3548 54.9556 31.297 55.0021 31.2525C55.0468 31.2181 55.1016 31.1995 55.1581 31.1995C55.2145 31.1995 55.2693 31.2181 55.3141 31.2525C55.3605 31.297 55.3921 31.3548 55.4045 31.4179L55.7945 32.7221L56.1346 31.3399C56.1419 31.2981 56.164 31.2604 56.197 31.2338C56.2268 31.2091 56.2644 31.1958 56.3031 31.1964C56.3503 31.1974 56.3956 31.2151 56.431 31.2463C56.4492 31.2615 56.4638 31.2806 56.4735 31.3022C56.4832 31.3238 56.4879 31.3474 56.4872 31.3711C56.4882 31.3877 56.4882 31.4044 56.4872 31.421L56.0941 32.9093C56.0845 32.9405 56.0689 32.9696 56.048 32.9948C56.0271 33.02 56.0014 33.0407 55.9724 33.0559Z" fill="white"/>
<path d="M56.7089 32.098C56.7599 31.9976 56.839 31.9141 56.9366 31.8578C57.0417 31.7938 57.163 31.7613 57.2861 31.7642C57.3789 31.7634 57.471 31.7803 57.5575 31.8141C57.6315 31.8447 57.6968 31.8929 57.7478 31.9545C57.7951 32.0157 57.8319 32.0842 57.857 32.1573C57.8826 32.2359 57.8952 32.3181 57.8945 32.4007C57.8966 32.4309 57.8878 32.4608 57.8695 32.4849C57.8616 32.4955 57.8512 32.5039 57.8392 32.5094C57.8272 32.5148 57.814 32.5172 57.8009 32.5161H56.9647C56.9608 32.5667 56.968 32.6175 56.9859 32.665C57.0038 32.7124 57.0319 32.7554 57.0682 32.7908C57.1045 32.8262 57.1481 32.8532 57.196 32.8699C57.2439 32.8866 57.2949 32.8926 57.3454 32.8874C57.4736 32.881 57.5967 32.8353 57.6979 32.7564C57.7118 32.7445 57.7295 32.7378 57.7478 32.7376C57.7616 32.7377 57.7751 32.7409 57.7875 32.7468C57.7999 32.7527 57.8109 32.7613 57.8196 32.772C57.8412 32.7947 57.8535 32.8248 57.8539 32.8562C57.8537 32.8736 57.8497 32.8907 57.8421 32.9063C57.8346 32.9219 57.8237 32.9357 57.8102 32.9467C57.674 33.0611 57.5014 33.1231 57.3235 33.1214C57.232 33.1262 57.1404 33.1126 57.0541 33.0815C56.9679 33.0505 56.8887 33.0025 56.8212 32.9405C56.7566 32.8731 56.7067 32.7932 56.6745 32.7057C56.6423 32.6182 56.6285 32.525 56.634 32.4319C56.6325 32.3163 56.6582 32.2019 56.7089 32.098ZM57.6105 32.3289C57.6083 32.2386 57.5778 32.1513 57.5232 32.0793C57.4958 32.0461 57.4608 32.02 57.4211 32.0031C57.3815 31.9863 57.3384 31.9793 57.2954 31.9826C57.2516 31.9805 57.2078 31.9888 57.1677 32.0066C57.1277 32.0245 57.0923 32.0516 57.0645 32.0856C57.0063 32.1538 56.9723 32.2393 56.9678 32.3289H57.6105Z" fill="white"/>
<path d="M58.1098 32.8843C58.1095 32.8558 58.1194 32.8281 58.1379 32.8063C58.1479 32.7959 58.1601 32.7877 58.1735 32.7824C58.187 32.777 58.2014 32.7745 58.2159 32.7751C58.2399 32.7758 58.2634 32.7823 58.2845 32.7938L58.375 32.8437C58.4123 32.8603 58.4509 32.8739 58.4904 32.8843C58.5403 32.8977 58.5917 32.905 58.6433 32.9061C58.6895 32.9063 58.7356 32.9011 58.7806 32.8905C58.8196 32.882 58.8553 32.8625 58.8835 32.8344C58.8976 32.8212 58.9088 32.8053 58.9163 32.7875C58.9239 32.7698 58.9276 32.7507 58.9272 32.7314C58.9272 32.6565 58.8648 32.6035 58.7431 32.5754L58.5372 32.5224L58.3875 32.4756C58.3464 32.463 58.3066 32.4462 58.2689 32.4256C58.2352 32.4098 58.2051 32.3872 58.1805 32.3593C58.1558 32.3314 58.1371 32.2988 58.1254 32.2634C58.1122 32.221 58.1059 32.1768 58.1067 32.1324C58.1041 32.0775 58.1159 32.023 58.1411 31.9743C58.1663 31.9255 58.204 31.8843 58.2502 31.8547C58.3655 31.7848 58.4992 31.7511 58.6339 31.758C58.783 31.7569 58.9302 31.79 59.0645 31.8547C59.081 31.8615 59.0956 31.872 59.1073 31.8854C59.1191 31.8988 59.1275 31.9148 59.132 31.932C59.1366 31.9492 59.1371 31.9673 59.1335 31.9847C59.1299 32.0021 59.1223 32.0185 59.1113 32.0325C59.1024 32.0428 59.0914 32.0509 59.079 32.0563C59.0666 32.0617 59.0531 32.0642 59.0395 32.0637C59.0221 32.0677 59.004 32.0677 58.9865 32.0637H58.9584H58.9179H58.8773H58.8243H58.7744H58.7119H58.6558C58.597 32.0615 58.5384 32.0721 58.4842 32.0949C58.4628 32.1032 58.4445 32.1178 58.4317 32.1367C58.4189 32.1557 58.4122 32.1781 58.4124 32.201C58.4109 32.218 58.4136 32.2351 58.4201 32.2508C58.4266 32.2666 58.4368 32.2805 58.4499 32.2915C58.4964 32.3181 58.547 32.3371 58.5996 32.3476L58.8024 32.3976C58.9164 32.4198 59.0234 32.469 59.1144 32.5411C59.1475 32.574 59.1732 32.6135 59.1898 32.6571C59.2065 32.7007 59.2138 32.7472 59.2111 32.7938C59.2146 32.8539 59.203 32.9139 59.1774 32.9684C59.1518 33.0229 59.113 33.0701 59.0645 33.1058C58.9501 33.1813 58.8146 33.2185 58.6776 33.2119C58.4929 33.2187 58.3111 33.165 58.1597 33.059C58.1408 33.0562 58.123 33.0479 58.1087 33.0353C58.0943 33.0226 58.0838 33.0061 58.0785 32.9877C58.0733 32.9693 58.0734 32.9497 58.079 32.9314C58.0845 32.9131 58.0952 32.8967 58.1098 32.8843Z" fill="white"/>
<path d="M59.6793 33.0091C59.6065 32.922 59.5697 32.8104 59.5763 32.6971V32.0138H59.4484C59.4325 32.0149 59.4165 32.0127 59.4014 32.0074C59.3864 32.002 59.3726 31.9936 59.361 31.9826C59.3502 31.9722 59.3418 31.9595 59.3365 31.9455C59.3311 31.9315 59.3288 31.9165 59.3298 31.9015C59.3289 31.8873 59.3308 31.873 59.3357 31.8595C59.3405 31.8461 59.3481 31.8338 59.3579 31.8235C59.3695 31.8125 59.3833 31.8041 59.3983 31.7987C59.4134 31.7934 59.4293 31.7912 59.4453 31.7923H59.5919L59.6325 31.4803C59.636 31.4374 59.6536 31.3968 59.6824 31.3649C59.697 31.3491 59.7149 31.3367 59.7349 31.3286C59.7548 31.3205 59.7763 31.3169 59.7978 31.3181C59.8147 31.3173 59.8316 31.3202 59.8472 31.3267C59.8629 31.3332 59.8769 31.343 59.8883 31.3555C59.9101 31.39 59.921 31.4302 59.9195 31.4709V31.8079H60.1317C60.1472 31.8064 60.1628 31.8084 60.1774 31.8138C60.192 31.8192 60.2051 31.8279 60.2159 31.8391C60.2362 31.8625 60.2472 31.8924 60.2471 31.9233C60.2472 31.9524 60.236 31.9803 60.2159 32.0013C60.2044 32.0113 60.1911 32.019 60.1766 32.0238C60.1621 32.0286 60.1469 32.0305 60.1317 32.0294H59.9039V32.6316C59.8997 32.6955 59.9104 32.7596 59.9351 32.8188C59.9452 32.8394 59.9614 32.8565 59.9815 32.8676C60.0016 32.8788 60.0246 32.8835 60.0474 32.8812H60.166C60.1817 32.8798 60.1976 32.8822 60.2122 32.8882C60.2269 32.8941 60.2399 32.9035 60.2502 32.9155C60.2709 32.9398 60.282 32.9709 60.2814 33.0029C60.285 33.0214 60.285 33.0405 60.2814 33.059C60.2745 33.075 60.2624 33.0882 60.2471 33.0965L60.2003 33.1214C60.1796 33.1238 60.1586 33.1238 60.1379 33.1214H59.9632C59.9105 33.1245 59.8579 33.1161 59.8088 33.0967C59.7598 33.0773 59.7156 33.0474 59.6793 33.0091Z" fill="white"/>
<path d="M62.4871 32.669H61.6447L61.5261 32.981C61.5141 33.0197 61.4901 33.0536 61.4575 33.0777C61.4276 33.0996 61.3916 33.1116 61.3545 33.112C61.3071 33.1125 61.2612 33.0946 61.2266 33.0621C61.2098 33.0473 61.1963 33.0291 61.1872 33.0086C61.178 32.9882 61.1734 32.966 61.1736 32.9436C61.1694 32.9209 61.1694 32.8976 61.1736 32.8749L61.7757 31.4273C61.7976 31.3511 61.8409 31.2828 61.9005 31.2307C61.953 31.1981 62.0135 31.1808 62.0753 31.1808C62.137 31.1808 62.1975 31.1981 62.25 31.2307C62.3097 31.2833 62.354 31.3513 62.3779 31.4273L62.9551 32.878C62.9644 32.8998 62.9697 32.9231 62.9707 32.9467C62.971 32.9694 62.966 32.9919 62.9563 33.0124C62.9466 33.033 62.9323 33.051 62.9145 33.0653C62.8821 33.0921 62.8413 33.1069 62.7991 33.1069C62.7569 33.1069 62.7161 33.0921 62.6837 33.0653C62.6511 33.0411 62.627 33.0073 62.615 32.9685L62.4871 32.669ZM62.0659 31.5333L61.7539 32.4038H62.3997L62.0659 31.5333Z" fill="white"/>
<path d="M63.5791 33.0559C63.5261 32.9964 63.4868 32.9262 63.4637 32.85L63.1111 31.9951C63.1081 31.9733 63.1081 31.9513 63.1111 31.9296C63.1109 31.9091 63.1149 31.8888 63.1229 31.87C63.131 31.8512 63.1429 31.8343 63.1579 31.8204C63.1879 31.7932 63.2266 31.7777 63.2671 31.7767C63.2975 31.7765 63.3271 31.7863 63.3513 31.8048C63.3793 31.8261 63.4 31.8555 63.4106 31.889L63.7569 32.772L64.1033 31.889C64.115 31.8561 64.1355 31.827 64.1625 31.8048C64.1867 31.7863 64.2164 31.7765 64.2468 31.7767C64.2874 31.7771 64.3263 31.7927 64.356 31.8204C64.371 31.8343 64.3829 31.8512 64.3909 31.87C64.399 31.8888 64.403 31.9091 64.4028 31.9296C64.4072 31.9512 64.4072 31.9735 64.4028 31.9951L64.0502 32.85C64.0271 32.9262 63.9877 32.9964 63.9348 33.0559C63.8883 33.0945 63.8298 33.1156 63.7694 33.1156C63.709 33.1156 63.6505 33.0945 63.6041 33.0559H63.5791Z" fill="white"/>
<path d="M64.6307 32.098C64.6805 31.9978 64.7586 31.9143 64.8553 31.8578C64.9617 31.7942 65.0839 31.7617 65.2079 31.7642C65.3006 31.764 65.3927 31.7809 65.4793 31.8141C65.5528 31.8455 65.6179 31.8936 65.6696 31.9545C65.7172 32.015 65.7532 32.0838 65.7757 32.1573C65.8008 32.2361 65.8145 32.318 65.8163 32.4007C65.817 32.4307 65.8082 32.4601 65.7913 32.4849C65.7829 32.4958 65.772 32.5043 65.7594 32.5098C65.7469 32.5152 65.7332 32.5174 65.7195 32.5161H64.8959C64.8914 32.5668 64.8982 32.6179 64.9159 32.6656C64.9336 32.7133 64.9617 32.7565 64.9981 32.7921C65.0345 32.8276 65.0784 32.8546 65.1266 32.8711C65.1747 32.8876 65.2259 32.8932 65.2765 32.8874C65.4036 32.8804 65.5256 32.8347 65.6259 32.7564C65.641 32.7442 65.6597 32.7376 65.679 32.7376C65.6927 32.738 65.7062 32.7412 65.7186 32.7471C65.7309 32.753 65.7419 32.7615 65.7507 32.772C65.7715 32.795 65.7827 32.8252 65.7819 32.8562C65.7823 32.8734 65.7789 32.8904 65.7719 32.906C65.7649 32.9217 65.7544 32.9356 65.7414 32.9467C65.6052 33.0611 65.4325 33.1231 65.2547 33.1214C65.1631 33.1262 65.0715 33.1126 64.9853 33.0815C64.899 33.0504 64.8198 33.0025 64.7523 32.9404C64.6878 32.8731 64.6379 32.7932 64.6056 32.7057C64.5734 32.6182 64.5596 32.525 64.5651 32.4319C64.5607 32.317 64.5832 32.2027 64.6307 32.098ZM65.5323 32.3289C65.5301 32.2386 65.4996 32.1513 65.445 32.0793C65.4176 32.0461 65.3826 32.02 65.3429 32.0031C65.3033 31.9863 65.2602 31.9793 65.2172 31.9826C65.1729 31.9805 65.1287 31.9887 65.0881 32.0066C65.0475 32.0245 65.0116 32.0515 64.9832 32.0856C64.9259 32.1541 64.893 32.2397 64.8896 32.3289H65.5323Z" fill="white"/>
<path d="M66.175 33.0567C66.1571 33.04 66.1431 33.0196 66.1339 32.9969C66.1247 32.9742 66.1206 32.9498 66.1218 32.9253C66.1212 32.901 66.1256 32.8767 66.1348 32.8541C66.1439 32.8315 66.1576 32.8111 66.175 32.794C66.1928 32.7766 66.2138 32.763 66.2369 32.7539C66.26 32.7448 66.2846 32.7403 66.3095 32.7408C66.3605 32.7403 66.4097 32.7593 66.4471 32.794C66.465 32.8107 66.479 32.8311 66.4882 32.8538C66.4973 32.8765 66.5015 32.9009 66.5003 32.9253C66.5013 32.9498 66.497 32.9741 66.4879 32.9968C66.4787 33.0194 66.4648 33.0399 66.4471 33.0567C66.4296 33.0755 66.4082 33.0902 66.3844 33.0999C66.3607 33.1096 66.3351 33.1141 66.3095 33.113C66.2844 33.1136 66.2594 33.109 66.2362 33.0993C66.213 33.0895 66.1921 33.0751 66.175 33.0567Z" fill="white"/>
<path d="M67.0767 30.5006H52.603V33.6861H67.0767V30.5006Z" stroke="white" stroke-linecap="round" stroke-linejoin="round"/>
<path d="M50.2193 51.3609H32.2793V56.459H50.2193V51.3609Z" fill="#06B3C4" stroke="#263238" stroke-linecap="round" stroke-linejoin="round"/>
<path d="M46.1788 52.6277H37.0809V51.8196L33.5054 53.832L37.0809 55.8475V55.0394H46.1788V52.6277Z" fill="white"/>
<path d="M48.3566 39.0088L42.9028 39.1898V38.5003L41.1338 40.2132L42.9028 41.926V41.2365L48.3566 41.4206V39.0088Z" fill="white"/>
<path d="M52.2598 122.154H48.7778L49.2989 19.3841H51.7387L52.2598 122.154Z" fill="#263238" stroke="#263238" stroke-linecap="round" stroke-linejoin="round"/>
<path d="M53.5606 120.909H47.2832V129.866H53.5606V120.909Z" fill="#263238" stroke="#263238" stroke-linecap="round" stroke-linejoin="round"/>
<path d="M46.7998 22.4479H53.5172V26.0546C53.5172 26.9453 53.1636 27.7995 52.5341 28.4296C51.9046 29.0596 51.0507 29.414 50.16 29.4149C49.2689 29.4149 48.4142 29.0608 47.784 28.4307C47.1538 27.8005 46.7998 26.9458 46.7998 26.0546V22.4479Z" fill="white" stroke="#263238" stroke-linecap="round" stroke-linejoin="round"/>
<path d="M49.4458 18.3888H50.856C51.7662 18.3888 52.6392 18.7504 53.2828 19.394C53.9264 20.0376 54.288 20.9105 54.288 21.8208V25.3557H46.02V21.8145C46.0217 20.9065 46.3831 20.0361 47.0252 19.394C47.6673 18.7519 48.5377 18.3904 49.4458 18.3888Z" fill="#263238" stroke="#263238" stroke-linecap="round" stroke-linejoin="round"/>
<path opacity="0.11" d="M80.5614 134.028C85.9668 134.028 90.3488 132.591 90.3488 130.818C90.3488 129.045 85.9668 127.607 80.5614 127.607C75.1559 127.607 70.7739 129.045 70.7739 130.818C70.7739 132.591 75.1559 134.028 80.5614 134.028Z" fill="black"/>
<path d="M83.304 75.7593C83.304 75.7593 87.934 75.7157 89.9995 76.5206C92.0649 77.3256 93.0134 82.2365 93.0384 84.1459C93.0633 86.0553 91.8091 86.8322 91.8091 86.8322L91.9932 88.0459C92.7075 88.2417 93.3307 88.6816 93.7542 89.2893C94.1777 89.8969 94.3749 90.6338 94.3113 91.3718C94.2177 94.1424 94.1647 97.1313 92.0774 98.1235C89.9901 99.1156 80.7674 97.902 79.3478 95.7273C77.9282 93.5527 80.6395 89.9429 80.0186 86.4672C79.3977 82.9915 78.7706 79.5688 78.9609 77.0791C79.1513 74.5893 83.304 75.7593 83.304 75.7593Z" fill="#263238" stroke="#263238" stroke-linecap="round" stroke-linejoin="round"/>
<path d="M94.3206 91.3718C94.3842 90.6338 94.187 89.8969 93.7635 89.2893C93.34 88.6816 92.7168 88.2417 92.0025 88.0459L91.8184 86.8322C91.8184 86.8322 93.0664 86.0522 93.0477 84.1459C93.0258 82.3987 92.2271 78.1274 90.5048 76.8045L90.4768 76.8264C90.4768 76.8264 88.8513 75.9434 87.9558 77.7842C87.0604 79.625 86.7733 82.8168 86.9044 84.7886C87.0354 86.7604 86.218 91.2189 85.8935 94.1892C85.6907 96.0268 86.3334 97.4683 87.5065 98.3731C89.5127 98.5572 91.3036 98.4979 92.0867 98.1235C94.174 97.1313 94.2239 94.1424 94.3206 91.3718Z" fill="#06B3C4" stroke="#263238" stroke-linecap="round" stroke-linejoin="round"/>
<path d="M92.2614 80.4643C90.8665 80.8957 89.4376 81.2088 87.9901 81.4003L87.9277 82.2676C89.4483 82.1976 90.9503 81.9054 92.3862 81.4003L92.2614 80.4643Z" fill="#263238" stroke="#263238" stroke-linecap="round" stroke-linejoin="round"/>
<path d="M94.1053 89.9023C93.1812 90.3158 92.2356 90.6793 91.2724 90.9912C90.0244 91.3624 89.4004 91.3624 89.4753 91.9833C89.5501 92.6042 89.6001 95.3904 90.5891 96.1329C91.5781 96.8755 93.4657 96.498 94.1053 95.4933C94.7075 94.5573 95.2254 92.2236 94.1053 89.9023Z" fill="#263238" stroke="#263238" stroke-linecap="round" stroke-linejoin="round"/>
<path d="M91.8184 86.8322C91.8184 86.8322 89.7623 87.3907 85.1416 88.0365L85.1946 89.5653C85.1946 89.5653 89.9807 88.8789 92.0025 88.0459L91.8184 86.8322Z" fill="#263238" stroke="#263238" stroke-linecap="round" stroke-linejoin="round"/>
<path d="M73.8691 109.053C73.8691 109.053 73.2451 111.674 73.5571 113.44C73.8691 115.205 76.8549 122.771 77.1482 123.991C77.4415 125.211 77.6786 126.425 77.6786 126.425L79.4882 126.232C79.4685 124.4 79.3078 122.572 79.0077 120.765C78.4929 117.352 78.5522 115.773 78.1092 114.385C77.9401 113.767 77.7102 113.167 77.4228 112.594L78.3588 110.263L73.8691 109.053Z" fill="white" stroke="#263238" stroke-linecap="round" stroke-linejoin="round"/>
<path d="M81.0701 111.093C81.0701 111.093 80.7082 113.081 80.7987 114.07C80.8892 115.059 82.6364 123.243 82.9577 124.843C83.2791 126.444 83.5318 128.153 83.5318 128.153L85.0918 128.322C85.0918 128.322 85.9217 123.642 85.7439 120.853C85.5661 118.063 84.4179 114.388 84.4179 114.388L86.0434 110.747L81.0701 111.093Z" fill="white" stroke="#263238" stroke-linecap="round" stroke-linejoin="round"/>
<path d="M75.3883 99.1375C75.3883 99.1375 74.2339 102.569 73.6816 105.228C73.3549 106.807 73.1463 108.409 73.0576 110.02C73.9232 110.325 74.8123 110.559 75.7159 110.719C77.0013 110.922 78.6861 111.115 78.6861 111.115L78.7329 111.443C78.7329 111.443 79.4131 112.036 82.3084 111.958C84.0721 111.909 85.8316 111.759 87.5781 111.508C87.5781 111.508 87.8339 104.02 87.5999 102.772C87.457 102.024 87.3528 101.269 87.2879 100.51C87.2879 100.51 83.6032 100.532 80.1119 100.279C76.6207 100.027 75.3883 99.1375 75.3883 99.1375Z" fill="#263238" stroke="#263238" stroke-linecap="round" stroke-linejoin="round"/>
<path d="M73.1514 109.093C73.1514 109.093 76.9671 110.12 78.7299 109.998" stroke="white" stroke-linecap="round" stroke-linejoin="round"/>
<path d="M78.811 110.245C78.811 110.245 83.4473 111.146 87.5907 110.079" stroke="white" stroke-linecap="round" stroke-linejoin="round"/>
<path d="M78.6704 111.115L79.6064 103.646C79.9406 103.381 80.2942 103.141 80.6641 102.928" stroke="white" stroke-linecap="round" stroke-linejoin="round"/>
<path d="M79.585 103.961L78.0156 102.261" stroke="white" stroke-linecap="round" stroke-linejoin="round"/>
<path d="M79.7034 78.9573C79.7034 78.9573 77.0763 78.6453 76.159 78.7732C75.2418 78.9012 73.4353 79.3005 72.674 79.2818C71.9127 79.2631 69.2233 79.3224 68.1406 79.2444C67.058 79.1664 65.4574 79.1944 65.7601 80.015C66.0627 80.8356 68.1812 82.6577 70.387 83.291L73.9438 84.3112C73.9438 84.3112 75.3447 88.0084 76.0093 89.3251C76.6738 90.6417 76.6333 92.1674 76.652 92.9661C76.6707 93.7648 75.092 99.4963 75.092 99.4963C75.092 99.4963 76.6083 100.623 80.1682 101.056C82.4448 101.307 84.7445 101.254 87.0073 100.9C87.1801 100.898 87.352 100.873 87.519 100.829C87.519 100.829 87.6219 95.9364 87.6188 91.9802C87.6157 88.024 88.6827 85.3408 87.2693 82.8043C85.856 80.2677 82.3273 79.3723 81.3413 79.1071C80.8097 78.9544 80.2539 78.9036 79.7034 78.9573Z" fill="white" stroke="#263238" stroke-linecap="round" stroke-linejoin="round"/>
<path d="M81.3256 79.1008C80.7992 78.948 80.249 78.8951 79.7032 78.9448C79.7032 78.9448 77.0761 78.6328 76.1588 78.7608C75.2416 78.8887 73.4351 79.288 72.6738 79.2693C72.3462 79.2693 71.6567 79.2693 70.8923 79.2693C70.0185 80.29 69.4832 81.5568 69.3604 82.8948C69.6932 83.0455 70.0362 83.1727 70.3868 83.2754L73.9436 84.2956C73.9436 84.2956 75.3445 87.9928 76.0091 89.3095C76.6736 90.6261 76.6331 92.1518 76.6518 92.9505C76.6705 93.7492 75.0918 99.4807 75.0918 99.4807C75.0918 99.4807 76.6081 100.607 80.168 101.041C82.4446 101.291 84.7443 101.239 87.0071 100.885C87.1799 100.882 87.3518 100.858 87.5188 100.813C87.5188 100.813 87.6217 95.9208 87.6186 91.9646C87.6155 88.0084 88.6825 85.3252 87.2691 82.7887C85.8558 80.2521 82.324 79.3536 81.3256 79.1008Z" fill="white" stroke="#263238" stroke-linecap="round" stroke-linejoin="round"/>
<path d="M78.4617 78.9168C78.2097 80.0137 78.1339 81.1438 78.2371 82.2645C78.4555 83.7871 79.3977 84.2208 80.5552 84.0024C81.7127 83.784 82.9451 81.7591 83.2353 80.6733C83.5255 79.5876 83.4506 79.2256 82.1495 78.9355C80.8485 78.6453 79.12 77.8092 78.4617 78.9168Z" stroke="#263238" stroke-linecap="round" stroke-linejoin="round"/>
<path d="M72.3901 80.6328L74.4119 84.071L73.0641 82.7232" stroke="#263238" stroke-width="0.5" stroke-linecap="round" stroke-linejoin="round"/>
<path d="M74.4118 84.071L73.6724 80.9697" stroke="#263238" stroke-width="0.5" stroke-linecap="round" stroke-linejoin="round"/>
<path d="M79.9746 89.2159C79.9746 89.2159 82.5112 91.3188 85.263 91.0286" stroke="#263238" stroke-width="0.5" stroke-linecap="round" stroke-linejoin="round"/>
<path d="M78.8174 90.0146C80.3887 90.7262 82.0853 91.1196 83.8094 91.1721" stroke="#263238" stroke-width="0.5" stroke-linecap="round" stroke-linejoin="round"/>
<path d="M76.418 94.4076C76.418 94.4076 77.7596 95.8053 81.4974 95.5713C85.2351 95.3373 87.6188 94.3545 87.6188 94.3545L87.6032 95.5464C87.6032 95.5464 82.7111 97.2499 78.7611 96.4574C76.4149 95.9863 76.0811 95.5401 76.0811 95.5401L76.418 94.4076Z" fill="#263238" stroke="#263238" stroke-linecap="round" stroke-linejoin="round"/>
<path d="M69.4791 80.0337C69.4791 80.0337 70.4495 79.6 71.7817 78.1804C73.1139 76.7608 74.4274 76.0588 75.0483 75.959C75.7255 75.834 76.3913 75.6535 77.0389 75.4193C77.2261 75.3225 78.0685 75.1697 78.3618 74.6112C78.655 74.0527 78.0966 74.2992 77.769 74.3148C77.4414 74.3304 77.7253 73.9528 78.081 73.5441C78.4366 73.1354 79.2666 72.1495 79.1636 71.6004C79.0606 71.0512 78.2775 71.3539 77.0451 71.9124C75.8127 72.4708 75.0078 73.6065 74.7238 74.0184C74.5974 74.2247 74.437 74.4082 74.2496 74.5613C74.2496 74.5613 71.3449 75.8092 69.0205 76.9636C66.6961 78.118 65.654 79.0291 65.6696 79.8247C65.6852 80.6203 66.5338 80.8293 66.5338 80.8293" fill="white"/>
<path d="M69.4791 80.0337C69.4791 80.0337 70.4494 79.6 71.7817 78.1804C73.1139 76.7608 74.4274 76.0588 75.0483 75.959C75.7255 75.834 76.3913 75.6535 77.0389 75.4193C77.2261 75.3225 78.0685 75.1697 78.3618 74.6112C78.655 74.0527 78.0966 74.2992 77.769 74.3148C77.4414 74.3304 77.7253 73.9528 78.081 73.5441C78.4366 73.1354 79.2666 72.1495 79.1636 71.6004C79.0606 71.0512 78.2775 71.3539 77.0451 71.9124C75.8127 72.4708 75.0078 73.6065 74.7238 74.0184C74.5974 74.2247 74.437 74.4082 74.2496 74.5613C74.2496 74.5613 71.3449 75.8092 69.0205 76.9636C66.6961 78.118 65.654 79.0291 65.6696 79.8247C65.6852 80.6203 66.5338 80.8293 66.5338 80.8293" stroke="#263238" stroke-linecap="round" stroke-linejoin="round"/>
<path d="M78.5273 78.3864C78.5273 78.3864 78.6053 79.8871 78.7957 81.288C78.986 82.6888 79.6318 83.7496 80.8642 82.9322C82.0966 82.1148 82.5365 80.1242 82.5365 80.1242C81.0706 79.9077 79.6876 79.3082 78.5273 78.3864Z" stroke="#263238" stroke-linecap="round" stroke-linejoin="round"/>
<path d="M76.4398 75.1665C76.4398 75.1665 76.0154 75.5097 76.2962 76.4145C76.3443 76.5524 76.4195 76.6793 76.5174 76.7876C76.6153 76.8959 76.7339 76.9835 76.8663 77.0452C76.9986 77.1069 77.142 77.1414 77.2879 77.1466C77.4339 77.1519 77.5794 77.1279 77.7158 77.076C77.7751 76.973 78.0528 78.3021 78.4615 78.9199C78.8702 79.5376 80.8452 80.639 81.6876 80.7919C82.53 80.9448 83.2476 80.4518 83.3786 79.9526C83.5796 78.636 83.6839 77.3064 83.6906 75.9746C83.6906 74.6392 83.7998 74.087 83.5471 73.5348C83.2944 72.9825 82.817 72.5488 81.1759 72.4022C79.5348 72.2556 78.552 72.8515 77.7439 73.4318C77.5189 73.5634 77.3371 73.7577 77.2207 73.991C77.1044 74.2243 77.0585 74.4864 77.0887 74.7453L76.4398 75.1665Z" fill="white" stroke="#263238" stroke-linecap="round" stroke-linejoin="round"/>
<path d="M76.9731 74.7796C77.0846 75.0884 77.2552 75.3724 77.4755 75.6158C77.6228 75.7891 77.7904 75.9441 77.9747 76.0776L77.8187 75.2944L78.1743 75.5316C78.1692 75.3614 78.1547 75.1916 78.1307 75.023C78.0963 74.7796 78.5019 75.076 78.5019 75.076C78.4928 74.7577 78.5426 74.4404 78.6486 74.14C78.7083 74.0005 78.7894 73.871 78.8888 73.7563C78.8888 73.7563 77.1947 74.3397 76.9731 74.7796Z" fill="#263238" stroke="#263238" stroke-linecap="round" stroke-linejoin="round"/>
<path d="M76.4398 75.1665C76.4398 75.1665 78.9358 73.0792 83.6407 73.7407C83.6407 73.7407 83.3818 71.0544 82.9855 70.6207C82.5893 70.187 81.3132 69.4288 79.2915 70.056C77.2697 70.6831 76.0716 71.7969 76.0248 72.4334C75.978 73.0699 76.4398 75.1665 76.4398 75.1665Z" fill="#06B3C4" stroke="#263238" stroke-linecap="round" stroke-linejoin="round"/>
<path d="M78.6488 74.1525C78.6488 74.1525 79.9248 74.5675 80.8827 74.2617C82.0932 73.7942 83.3913 73.5972 84.686 73.6845C86.4644 73.8125 86.221 73.8499 86.221 73.8499C86.221 73.8499 85.2257 73.2259 82.789 73.332C80.3523 73.4381 78.5021 73.9653 78.6488 74.1525Z" fill="#06B3C4" stroke="#263238" stroke-linecap="round" stroke-linejoin="round"/>
<path d="M83.3037 73.7688C83.3037 73.7688 83.8154 74.0808 85.3442 74.346C86.873 74.6112 86.7139 74.2305 86.2334 73.8499C85.7529 73.4693 83.4379 73.5941 83.3037 73.7688Z" fill="#06B3C4" stroke="#263238" stroke-linecap="round" stroke-linejoin="round"/>
<path d="M82.2183 74.5893C82.1523 74.6747 82.1109 74.7764 82.0982 74.8836C82.0856 74.9907 82.1023 75.0993 82.1465 75.1977C82.2965 75.6608 82.3785 76.1432 82.3899 76.6298C82.3899 76.7359 82.3712 76.87 81.9999 76.842C81.7238 76.8125 81.4512 76.7572 81.1855 76.6766" stroke="#263238" stroke-linecap="round" stroke-linejoin="round"/>
<path d="M80.8079 75.1915C80.8079 75.3974 80.6925 75.5565 80.5833 75.5472C80.4741 75.5378 80.3961 75.3662 80.4085 75.1634C80.421 74.9606 80.5271 74.7952 80.6363 74.8046C80.7455 74.814 80.8297 74.9856 80.8079 75.1915Z" fill="#263238"/>
<path d="M83.0794 75.0355C83.0794 75.2414 82.9639 75.4005 82.8547 75.3912C82.7455 75.3818 82.6675 75.2102 82.6831 75.0074C82.6987 74.8046 82.7986 74.6424 82.9078 74.6486C83.017 74.6548 83.095 74.8296 83.0794 75.0355Z" fill="#263238"/>
<path d="M79.7158 74.5238C79.7158 74.5238 80.1994 73.7001 81.0075 73.9778" stroke="#263238" stroke-linecap="round" stroke-linejoin="round"/>
<path d="M82.5425 73.7968C82.5425 73.7968 83.2819 73.5566 83.4535 74.1276L82.5425 73.7968Z" fill="white"/>
<path d="M82.5425 73.7968C82.5425 73.7968 83.2819 73.5566 83.4535 74.1276" stroke="#263238" stroke-linecap="round" stroke-linejoin="round"/>
<path d="M81.1196 78.2959C81.1196 78.2959 81.7436 77.4129 82.3832 78.118" stroke="#263238" stroke-linecap="round" stroke-linejoin="round"/>
<path d="M84.9637 80.5173C84.9637 80.5173 83.3288 80.7576 82.9232 83.734C82.5519 86.4484 83.9403 89.3157 84.7266 90.3828C85.5128 91.4498 86.0869 92.0707 86.48 92.0988C86.8731 92.1268 87.2725 92.158 87.6874 89.9148C88.1024 87.6715 89.0602 85.9336 88.1274 83.8776C87.1945 81.8215 86.6547 81.5844 84.9637 80.5173Z" fill="#263238" stroke="#263238" stroke-linecap="round" stroke-linejoin="round"/>
<path d="M77.2977 78.7982C76.3582 79.8654 75.6846 81.1398 75.3321 82.5172C74.6489 84.9602 75.9717 89.1036 76.1589 89.5123C76.3022 89.894 76.4067 90.2891 76.4709 90.6916C75.603 89.5635 74.9147 88.308 74.4305 86.9695C73.7079 85.1817 73.5607 83.2132 74.0093 81.3379C74.3049 80.4194 74.7835 79.5703 75.4164 78.8419C76.0375 78.7303 76.6721 78.7156 77.2977 78.7982Z" fill="#263238" stroke="#263238" stroke-linecap="round" stroke-linejoin="round"/>
<path d="M85.5345 127.386C85.5345 127.386 83.4067 127.436 83.1977 127.536C82.9886 127.636 82.9917 128.366 82.9917 128.366C82.9917 128.366 81.6283 130.3 80.9325 130.687C80.2368 131.074 79.1604 131.735 79.307 132.125C79.4537 132.515 79.6814 132.587 81.0105 132.684C82.3396 132.78 84.5174 131.748 85.3411 131.648C86.1648 131.548 86.0836 131.439 86.0119 130.824C85.9401 130.21 85.5408 128.522 85.5408 128.522C85.6474 128.15 85.6452 127.756 85.5345 127.386Z" fill="#06B3C4" stroke="#263238" stroke-linecap="round" stroke-linejoin="round"/>
<path d="M82.9917 128.366C82.9917 128.366 82.5955 127.027 83.1196 126.977C83.6438 126.927 84.2054 126.852 84.2272 127.349C84.2036 127.776 84.1142 128.197 83.962 128.597C83.962 128.597 83.2631 128.615 82.9917 128.366Z" fill="white" stroke="#263238" stroke-linecap="round" stroke-linejoin="round"/>
<path d="M83.9621 128.609C83.9621 128.609 83.2694 129.723 82.6298 130.141C81.9902 130.559 81.6938 130.072 81.7406 129.96C81.7874 129.848 82.9886 128.366 82.9886 128.366L83.9621 128.609Z" fill="white" stroke="#263238" stroke-linecap="round" stroke-linejoin="round"/>
<path d="M80.6329 132.278C79.6969 132.209 79.4224 131.929 79.3381 131.791C79.3094 131.842 79.2918 131.897 79.2864 131.955C79.281 132.013 79.288 132.071 79.3069 132.125C79.4536 132.512 79.6813 132.587 81.0105 132.684C82.3396 132.78 84.5173 131.748 85.341 131.648C86.1647 131.548 86.0836 131.439 86.0118 130.824C86.0118 130.793 86.0118 130.756 85.9962 130.718C85.6437 130.852 85.1289 131.03 84.5891 131.186C83.6157 131.464 81.8778 132.369 80.6329 132.278Z" fill="#263238" stroke="#263238" stroke-linecap="round" stroke-linejoin="round"/>
<path d="M79.7129 125.445C79.7129 125.445 77.6101 125.551 77.4197 125.801C77.2294 126.051 76.5212 127.336 75.6039 127.966C74.6866 128.597 73.8442 128.565 73.5728 129.099C73.3013 129.632 74.1375 129.751 75.1328 129.997C76.1281 130.244 76.7583 130.029 77.6662 129.542C78.5741 129.055 79.351 129.199 80.1622 128.918C80.9734 128.637 80.0686 126.612 80.0842 126.422C80.0998 126.232 80.2808 126.11 80.1622 125.732C80.1576 125.681 80.1413 125.632 80.1146 125.588C80.0879 125.544 80.0514 125.506 80.008 125.479C79.9647 125.451 79.9155 125.433 79.8644 125.428C79.8132 125.422 79.7614 125.428 79.7129 125.445Z" fill="#06B3C4" stroke="#263238" stroke-linecap="round" stroke-linejoin="round"/>
<path d="M80.1589 128.915C80.4896 128.796 80.5302 128.391 80.4709 127.938C80.1027 128.313 79.2822 128.394 78.5459 128.709C77.6754 129.083 77.0264 129.589 75.7191 129.579C74.9784 129.566 74.247 129.412 73.5632 129.127C73.3292 129.639 74.1498 129.751 75.1232 130.004C76.0967 130.256 76.7487 130.035 77.6567 129.548C78.5646 129.061 79.3539 129.205 80.1589 128.915Z" fill="#263238" stroke="#263238" stroke-linecap="round" stroke-linejoin="round"/>
<path d="M76.9513 126.615C76.9513 126.615 76.7267 125.726 76.5769 125.367C76.4271 125.009 77.7313 124.697 77.906 125.115C78.0807 125.533 77.5753 126.837 77.5753 126.837L76.9513 126.615Z" fill="white" stroke="#263238" stroke-linecap="round" stroke-linejoin="round"/>
<path d="M77.5753 126.837C77.5753 126.837 77.0013 127.929 76.3273 128.228C75.6534 128.528 75.3477 128.097 75.3477 128.097C75.9908 127.769 76.5162 127.249 76.8515 126.609L77.5753 126.837Z" fill="white" stroke="#263238" stroke-linecap="round" stroke-linejoin="round"/>
<path d="M85.9557 105.836C85.9557 105.836 83.7717 105.64 81.8997 105.431C80.0277 105.221 79.2414 105.119 79.2414 105.119C79.2414 105.119 79.8654 109.075 79.8654 109.331C79.8654 109.586 78.5737 113.371 78.5737 113.371L79.9777 117.804C79.9777 117.804 86.0867 117.627 88.3331 117.533C90.5795 117.439 94.2236 116.709 94.2236 116.709C94.2236 116.709 92.1145 113.873 91.6559 113.143C91.4247 112.765 91.1683 112.404 90.8884 112.061L94.0926 108.597C94.0926 108.597 93.6527 105.555 93.4686 105.1C93.2845 104.644 93.2221 104.457 93.2221 104.457C93.2221 104.457 87.2317 105.967 85.9557 105.836Z" fill="#06B3C4"/>
<path d="M89.8806 108.192H94.0333C94.0052 108.014 93.9709 107.789 93.9335 107.543H90.4047C91.1816 106.541 92.0739 105.287 92.5388 104.622L91.5779 104.85C90.6419 106.189 89.2659 108.033 88.7917 108.404C88.2426 108.838 84.7919 110.563 82.8387 111.524C83.2818 110.391 83.6624 109.271 83.5875 108.931C83.4359 108.513 83.2534 108.106 83.0415 107.714L85.16 105.761L84.2864 105.68L82.7264 107.112C82.4144 106.532 82.1024 105.917 81.8247 105.424L81.0323 105.334C81.8622 106.853 82.8793 108.766 82.9417 109.059C82.9667 109.393 82.2085 111.399 81.4909 113.065C81.4565 113.136 81.4498 113.217 81.4724 113.292C81.4949 113.367 81.545 113.431 81.6126 113.471L82.923 114.301L80.5175 115.237L78.7983 114.089L79.1103 115.081L79.7749 115.527L79.3069 115.708L79.5066 116.332L80.4426 115.967L82.4612 117.311C82.519 117.353 82.5892 117.373 82.6601 117.369C82.731 117.365 82.7984 117.337 82.8512 117.29L84.9229 115.536C86.0898 116.254 87.344 117.006 88.3019 117.533H88.3331C88.8884 117.508 89.5311 117.446 90.1801 117.368L88.6388 115.789C89.3664 116.108 90.157 116.257 90.9507 116.226C91.8506 116.217 92.7462 116.101 93.6183 115.879C93.4873 115.705 93.3469 115.511 93.2003 115.308C91.4624 115.698 89.7433 115.667 88.8635 115.174C88.7227 115.108 88.5983 115.012 88.4991 114.892C88.3999 114.772 88.3283 114.632 88.2894 114.482C88.2751 114.424 88.2754 114.364 88.2901 114.307C88.3048 114.25 88.3335 114.197 88.3736 114.154C88.8229 113.627 90.5358 113.449 91.8618 113.443C91.7807 113.324 91.712 113.224 91.6652 113.146C91.5841 113.015 91.5092 112.903 91.4375 112.797C90.2456 112.831 88.4922 113.009 87.8775 113.733C87.7731 113.852 87.698 113.994 87.6584 114.147C87.6189 114.301 87.6159 114.461 87.6498 114.616C87.6692 114.699 87.6953 114.78 87.7278 114.859L85.5438 112.613L85.6904 110.828L86.1054 110.619L90.9507 112.029L91.4437 111.493L86.9415 110.198C87.718 109.821 88.4704 109.395 89.1942 108.925C89.4462 108.703 89.6761 108.458 89.8806 108.192ZM82.6203 116.644L81.1851 115.686L83.6156 114.734L84.3426 115.187L82.6203 116.644ZM89.1723 117.268C88.5827 116.956 87.7434 116.482 86.8292 115.936L87.6092 115.67L89.1723 117.268ZM87.1007 115.149L86.0991 115.493C84.6515 114.613 83.1414 113.664 82.2023 113.062C82.2896 112.862 82.3801 112.647 82.4737 112.422C82.7857 112.276 83.8153 111.767 84.9978 111.174L84.8636 112.716C84.8604 112.762 84.8671 112.809 84.8832 112.852C84.8994 112.896 84.9246 112.935 84.9572 112.968L87.1007 115.149Z" fill="white"/>
<path opacity="0.26" d="M94.0927 108.597L79.8718 109.34C79.853 109.596 78.5801 113.38 78.5801 113.38L90.9041 112.073L94.0927 108.597Z" fill="black"/>
<path d="M86.5172 106.535L83.1538 106.972" stroke="#263238" stroke-width="0.5" stroke-linecap="round" stroke-linejoin="round"/>
<path d="M86.5798 107.159L84.2148 108.029" stroke="#263238" stroke-width="0.5" stroke-linecap="round" stroke-linejoin="round"/>
<path d="M88.5112 107.034L91.1289 107.533" stroke="#263238" stroke-width="0.5" stroke-linecap="round" stroke-linejoin="round"/>
<path d="M88.7607 106.41H90.692" stroke="#263238" stroke-width="0.5" stroke-linecap="round" stroke-linejoin="round"/>
<path d="M85.9557 105.836C85.9557 105.836 83.7717 105.64 81.8997 105.431C80.0277 105.221 79.2414 105.119 79.2414 105.119C79.2414 105.119 79.8654 109.075 79.8654 109.331C79.8654 109.586 78.5737 113.371 78.5737 113.371L79.9777 117.804C79.9777 117.804 86.0867 117.627 88.3331 117.533C90.5795 117.439 94.2237 116.709 94.2237 116.709C94.2237 116.709 92.1145 113.873 91.6559 113.143C91.4247 112.765 91.1683 112.404 90.8884 112.061L94.0926 108.597C94.0926 108.597 93.6527 105.555 93.4686 105.1C93.2845 104.644 93.2221 104.457 93.2221 104.457C93.2221 104.457 87.2317 105.967 85.9557 105.836Z" stroke="#263238" stroke-linecap="round" stroke-linejoin="round"/>
<path d="M89.3846 92.9318C89.3846 91.9552 89.1381 90.8539 89.2348 89.4998C89.3315 88.1457 89.3346 84.6669 88.6857 83.6436C88.0367 82.6202 86.0181 81.6062 86.0181 81.6062C85.2951 82.0896 84.7779 82.8247 84.5673 83.6685C84.2116 85.0881 84.6203 86.9227 84.6203 86.9227C84.6203 86.9227 86.0774 91.69 86.1086 91.7992C86.1793 92.8328 86.1793 93.8701 86.1086 94.9036C86.0312 96.107 86.1632 97.3147 86.4986 98.4729C86.7795 100.094 86.9256 101.736 86.9354 103.381C86.9156 103.596 86.8535 103.805 86.7529 103.996C86.6523 104.187 86.515 104.356 86.3488 104.495C86.0743 104.807 85.6718 105.384 85.8496 105.902H86.3925C86.3925 105.902 86.589 106.641 86.614 106.838C86.639 107.034 86.5672 107.955 86.926 107.98C87.2848 108.005 87.5812 107.377 87.5812 107.377C87.5812 107.377 88.5172 107.337 88.7481 106.753C88.979 106.17 88.7949 104.626 88.7949 104.626C88.7949 104.626 89.2972 100.688 89.5905 98.1453C89.8838 95.6025 89.3846 93.9052 89.3846 92.9318Z" fill="white" stroke="#263238" stroke-linecap="round" stroke-linejoin="round"/>
<path d="M86.0181 81.5968C85.2951 82.0802 84.7779 82.8154 84.5673 83.6592C84.2116 85.0788 84.6203 86.9133 84.6203 86.9133C84.6203 86.9133 85.1757 88.7292 85.6063 90.1425C86.7906 90.4667 88.0437 90.4396 89.213 90.0645C89.213 89.8773 89.213 89.687 89.2348 89.4905C89.3347 88.1239 89.3346 84.6576 88.6857 83.6342C88.0367 82.6108 86.0181 81.5968 86.0181 81.5968Z" fill="white" stroke="#263238" stroke-linecap="round" stroke-linejoin="round"/>
<path d="M86.0746 84.3393C85.0637 85.4189 84.8609 87.6434 84.8609 87.6434C84.8609 87.6434 84.5926 85.2847 85.6034 83.5874" stroke="#263238" stroke-width="0.5" stroke-linecap="round" stroke-linejoin="round"/>
</svg>
