<svg width="16" height="26" viewBox="0 0 16 26" fill="none" xmlns="http://www.w3.org/2000/svg">
<path fill-rule="evenodd" clip-rule="evenodd" d="M8.79366 1.5C8.79366 0.947715 8.34595 0.5 7.79366 0.5C7.24138 0.5 6.79366 0.947715 6.79366 1.5V4.69584H5.17133C3.93242 4.69584 2.74424 5.18799 1.8682 6.06404C0.992157 6.94008 0.5 8.12825 0.5 9.36717C0.5 10.6061 0.992157 11.7943 1.8682 12.6703C2.74424 13.5463 3.93242 14.0385 5.17133 14.0385H6.79366V19.3812H1.5C0.947715 19.3812 0.5 19.8289 0.5 20.3812C0.5 20.9334 0.947715 21.3812 1.5 21.3812H6.79366V24.5769C6.79366 25.1292 7.24138 25.5769 7.79366 25.5769C8.34595 25.5769 8.79366 25.1292 8.79366 24.5769V21.3812H10.4161C11.655 21.3812 12.8432 20.889 13.7192 20.013C14.5953 19.1369 15.0874 17.9487 15.0874 16.7098C15.0874 15.4709 14.5953 14.2827 13.7192 13.4067C12.8432 12.5307 11.655 12.0385 10.4161 12.0385H8.79366V6.69584H13.0385C13.5907 6.69584 14.0385 6.24812 14.0385 5.69584C14.0385 5.14355 13.5907 4.69584 13.0385 4.69584H8.79366V1.5ZM6.79366 6.69584H5.17133C4.46285 6.69584 3.78339 6.97728 3.28241 7.47825C2.78144 7.97922 2.5 8.65869 2.5 9.36717C2.5 10.0756 2.78144 10.7551 3.28241 11.2561C3.78339 11.7571 4.46285 12.0385 5.17133 12.0385H6.79366V6.69584ZM8.79366 14.0385V19.3812H10.4161C11.1246 19.3812 11.804 19.0997 12.305 18.5987C12.806 18.0978 13.0874 17.4183 13.0874 16.7098C13.0874 16.0013 12.806 15.3219 12.305 14.8209C11.804 14.3199 11.1246 14.0385 10.4161 14.0385H8.79366Z" fill="#06B3C4"/>
</svg>
