<svg width="18" height="18" viewBox="0 0 18 18" fill="none" xmlns="http://www.w3.org/2000/svg">
<path d="M15.1459 11.5858C15.6867 10.3011 15.8111 8.87919 15.5018 7.52003C15.1926 6.16088 14.4651 4.93284 13.4217 4.00855C12.3783 3.08427 11.0715 2.51023 9.68498 2.36714C8.29844 2.22406 6.90193 2.51912 5.69178 3.21084L4.86511 1.76334C6.12981 1.04052 7.56194 0.661981 9.01862 0.66549C10.4753 0.669 11.9056 1.05444 13.1668 1.78334C16.9084 3.94334 18.3418 8.56834 16.5976 12.425L17.7159 13.07L14.2451 14.915L14.1076 10.9867L15.1459 11.5858ZM2.85428 6.41418C2.31357 7.69892 2.1891 9.12083 2.49838 10.48C2.80766 11.8391 3.53513 13.0672 4.57851 13.9915C5.62189 14.9157 6.92872 15.4898 8.31525 15.6329C9.70178 15.776 11.0983 15.4809 12.3084 14.7892L13.1351 16.2367C11.8704 16.9595 10.4383 17.338 8.98161 17.3345C7.52493 17.331 6.09464 16.9456 4.83345 16.2167C1.09178 14.0567 -0.341553 9.43168 1.40261 5.57501L0.283447 4.93084L3.75428 3.08584L3.89178 7.01418L2.85345 6.41501L2.85428 6.41418ZM6.08345 10.6667H10.6668C10.7773 10.6667 10.8833 10.6228 10.9614 10.5446C11.0395 10.4665 11.0834 10.3605 11.0834 10.25C11.0834 10.1395 11.0395 10.0335 10.9614 9.95538C10.8833 9.87724 10.7773 9.83334 10.6668 9.83334H7.33345C6.78091 9.83334 6.25101 9.61385 5.86031 9.22315C5.46961 8.83245 5.25011 8.30254 5.25011 7.75001C5.25011 7.19747 5.46961 6.66757 5.86031 6.27687C6.25101 5.88617 6.78091 5.66668 7.33345 5.66668H8.16678V4.83334H9.83345V5.66668H11.9168V7.33334H7.33345C7.22294 7.33334 7.11696 7.37724 7.03882 7.45538C6.96068 7.53352 6.91678 7.6395 6.91678 7.75001C6.91678 7.86052 6.96068 7.9665 7.03882 8.04464C7.11696 8.12278 7.22294 8.16668 7.33345 8.16668H10.6668C11.2193 8.16668 11.7492 8.38617 12.1399 8.77687C12.5306 9.16757 12.7501 9.69747 12.7501 10.25C12.7501 10.8025 12.5306 11.3324 12.1399 11.7231C11.7492 12.1138 11.2193 12.3333 10.6668 12.3333H9.83345V13.1667H8.16678V12.3333H6.08345V10.6667Z" fill="black"/>
</svg>
