<svg width="20" height="20" viewBox="0 0 20 20" fill="none" xmlns="http://www.w3.org/2000/svg">
<path d="M13.414 3.99999H19.008C19.556 3.99999 20 4.44499 20 4.99999V19C20 19.552 19.545 20 19.008 20H0.992018C0.861146 19.9997 0.731614 19.9736 0.610855 19.9232C0.490096 19.8727 0.380487 19.7989 0.288319 19.706C0.196151 19.6131 0.123237 19.5029 0.0737631 19.3818C0.024289 19.2606 -0.000772111 19.1309 1.81223e-05 19V4.99999C1.81223e-05 4.44799 0.455018 3.99999 0.992018 3.99999H6.58602L4.05002 1.46399L5.46402 0.0499878L9.41402 3.99999H10.586L14.536 0.0499878L15.95 1.46399L13.414 3.99999ZM2.00002 5.99999V18H18V5.99999H2.00002Z" fill="black"/>
</svg>
