<svg width="19" height="20" viewBox="0 0 19 20" fill="none" xmlns="http://www.w3.org/2000/svg">
<path d="M11.5 0.347629C11.378 0.495895 11.3032 0.677344 11.2854 0.868532C11.2676 1.05972 11.3075 1.25186 11.4 1.42013C12.1227 2.74697 12.5001 4.23425 12.4975 5.74513C12.4975 10.7714 8.4 14.8414 3.35 14.8414C2.69125 14.8414 2.05 14.7726 1.43375 14.6414C1.24484 14.6005 1.04807 14.6161 0.868 14.6864C0.687931 14.7566 0.532547 14.8784 0.421247 15.0364C0.303762 15.2007 0.243864 15.3992 0.250872 15.6011C0.257879 15.803 0.3314 15.9969 0.459999 16.1526C1.44039 17.3569 2.67719 18.3273 4.08021 18.9929C5.48322 19.6585 7.0171 20.0026 8.57 20.0001C14.3325 20.0001 19 15.3576 19 9.63763C19 5.33263 16.3575 1.64013 12.595 0.075129C12.4076 -0.0040812 12.1995 -0.0203387 12.0021 0.0287986C11.8046 0.0779359 11.6284 0.189815 11.5 0.347629ZM12.9275 1.63888C14.3742 2.41492 15.5837 3.56843 16.4273 4.97683C17.271 6.38523 17.7172 7.99589 17.7187 9.63763C17.7187 14.6626 13.62 18.7326 8.57 18.7326C7.36069 18.7347 6.16298 18.497 5.04618 18.0331C3.92939 17.5692 2.91568 16.8884 2.06375 16.0301C2.485 16.0826 2.91375 16.1089 3.35 16.1089C9.1125 16.1089 13.7787 11.4664 13.7787 5.74638C13.7787 4.28763 13.4762 2.89888 12.9275 1.63888Z" fill="black"/>
</svg>
