<svg width="17" height="20" viewBox="0 0 17 20" fill="none" xmlns="http://www.w3.org/2000/svg">
<path d="M14.1376 14.1421L8.28158 20L2.42558 14.1421C1.2674 12.9835 0.478663 11.5074 0.159124 9.90041C-0.160414 8.29343 0.003595 6.62774 0.630411 5.11399C1.25723 3.60025 2.3187 2.30643 3.68059 1.39614C5.04249 0.485862 6.64364 0 8.28158 0C9.91951 0 11.5207 0.485862 12.8826 1.39614C14.2445 2.30643 15.3059 3.60025 15.9327 5.11399C16.5596 6.62774 16.7236 8.29343 16.404 9.90041C16.0845 11.5074 15.2958 12.9835 14.1376 14.1421ZM8.28158 11.9661C9.25776 11.9661 10.194 11.5782 10.8842 10.8877C11.5745 10.1972 11.9623 9.2607 11.9623 8.2842C11.9623 7.3077 11.5745 6.37119 10.8842 5.6807C10.194 4.99021 9.25776 4.6023 8.28158 4.6023C7.30539 4.6023 6.36919 4.99021 5.67893 5.6807C4.98866 6.37119 4.60088 7.3077 4.60088 8.2842C4.60088 9.2607 4.98866 10.1972 5.67893 10.8877C6.36919 11.5782 7.30539 11.9661 8.28158 11.9661ZM8.28158 10.1251C7.79349 10.1251 7.32539 9.93119 6.98025 9.58595C6.63512 9.2407 6.44123 8.77245 6.44123 8.2842C6.44123 7.79595 6.63512 7.3277 6.98025 6.98245C7.32539 6.63721 7.79349 6.44325 8.28158 6.44325C8.76967 6.44325 9.23777 6.63721 9.5829 6.98245C9.92803 7.3277 10.1219 7.79595 10.1219 8.2842C10.1219 8.77245 9.92803 9.2407 9.5829 9.58595C9.23777 9.93119 8.76967 10.1251 8.28158 10.1251Z" fill="#878787"/>
</svg>
