<svg width="24" height="18" viewBox="0 0 24 18" fill="none" xmlns="http://www.w3.org/2000/svg">
<path d="M0.689941 3.99702C3.88903 1.40534 7.88279 -0.00607102 11.9999 1.96299e-05C16.2849 1.96299e-05 20.2199 1.49702 23.3099 3.99702L22.0539 5.55302C19.2102 3.24909 15.6599 1.99446 11.9999 2.00002C8.19094 2.00002 4.69394 3.33002 1.94594 5.55302L0.689941 3.99702ZM3.83094 7.88702C6.14154 6.01502 9.02618 4.99556 11.9999 5.00002C15.0939 5.00002 17.9359 6.08102 20.1689 7.88602L18.9119 9.44202C16.9568 7.85835 14.516 6.99603 11.9999 7.00002C9.38194 7.00002 6.97694 7.91502 5.08794 9.44202L3.83094 7.88602V7.88702ZM6.97294 11.777C8.39479 10.6249 10.1699 9.99742 11.9999 10C13.9039 10 15.6529 10.665 17.0269 11.776L15.7699 13.332C14.7035 12.4682 13.3723 11.9979 11.9999 12C10.5719 12 9.25994 12.499 8.22994 13.332L6.97294 11.776V11.777ZM10.1149 15.667C10.648 15.2347 11.3136 14.9992 11.9999 15C12.7139 15 13.3699 15.25 13.8849 15.666L11.9999 18L10.1149 15.666V15.667Z" fill="black"/>
</svg>
